<mxfile host="Electron" modified="2024-05-07T01:04:33.720Z" agent="Mozilla/5.0 (Windows NT 10.0; Win64; x64) AppleWebKit/537.36 (KHTML, like Gecko) draw.io/23.1.5 Chrome/120.0.6099.109 Electron/28.1.0 Safari/537.36" etag="udrQY_DMuhZwGq1iUxwI" version="23.1.5" type="device">
  <diagram name="Page-1" id="lIW-hzbJbRkLLm69xamd">
    <mxGraphModel dx="2736" dy="3467" grid="1" gridSize="10" guides="1" tooltips="1" connect="1" arrows="1" fold="1" page="1" pageScale="1" pageWidth="827" pageHeight="1169" math="0" shadow="0">
      <root>
        <mxCell id="0" />
        <mxCell id="1" parent="0" />
        <mxCell id="Z6ui31-ucEjXCs6Sb0qe-4" value="" style="rounded=0;whiteSpace=wrap;html=1;rotation=90;fillColor=#f5f5f5;strokeColor=#000000;fontColor=#333333;strokeWidth=3;" parent="1" vertex="1">
          <mxGeometry x="-526.47" y="-2190.04" width="1658.2" height="1530" as="geometry" />
        </mxCell>
        <mxCell id="Z6ui31-ucEjXCs6Sb0qe-5" value="super admin&lt;div&gt;&lt;br/&gt;&lt;/div&gt;" style="shape=umlActor;verticalLabelPosition=bottom;verticalAlign=top;html=1;outlineConnect=0;" parent="1" vertex="1">
          <mxGeometry x="-580" y="-2220" width="70" height="120" as="geometry" />
        </mxCell>
        <mxCell id="Z6ui31-ucEjXCs6Sb0qe-8" value="&lt;p style=&quot;font-size: 20px;&quot;&gt;&lt;font color=&quot;#000000&quot;&gt;mange&lt;/font&gt;&lt;/p&gt;&lt;p style=&quot;font-size: 20px;&quot;&gt;&lt;font color=&quot;#000000&quot;&gt;hotel&lt;/font&gt;&lt;/p&gt;" style="ellipse;whiteSpace=wrap;html=1;fillColor=#b1ddf0;strokeColor=#10739e;align=center;" parent="1" vertex="1">
          <mxGeometry x="-330" y="-2240" width="120" height="80" as="geometry" />
        </mxCell>
        <mxCell id="Z6ui31-ucEjXCs6Sb0qe-9" value="&lt;font style=&quot;font-size: 20px;&quot;&gt;&lt;font color=&quot;#000000&quot;&gt;mange room&lt;/font&gt;&lt;br&gt;&lt;/font&gt;" style="ellipse;whiteSpace=wrap;html=1;fillColor=#cce5ff;strokeColor=#36393d;" parent="1" vertex="1">
          <mxGeometry x="-330" y="-2150" width="120" height="80" as="geometry" />
        </mxCell>
        <mxCell id="Z6ui31-ucEjXCs6Sb0qe-10" value="&lt;font color=&quot;#000000&quot; style=&quot;font-size: 20px;&quot;&gt;manage service&lt;/font&gt;" style="ellipse;whiteSpace=wrap;html=1;fillColor=#b1ddf0;strokeColor=#10739e;" parent="1" vertex="1">
          <mxGeometry x="-300" y="-1780" width="120" height="80" as="geometry" />
        </mxCell>
        <mxCell id="Z6ui31-ucEjXCs6Sb0qe-11" value="&lt;font color=&quot;#000000&quot; style=&quot;font-size: 20px;&quot;&gt;manage payemnt&lt;/font&gt;" style="ellipse;whiteSpace=wrap;html=1;fillColor=#b1ddf0;strokeColor=#10739e;" parent="1" vertex="1">
          <mxGeometry x="-330" y="-2060" width="120" height="80" as="geometry" />
        </mxCell>
        <mxCell id="Z6ui31-ucEjXCs6Sb0qe-12" value="&lt;font color=&quot;#000000&quot; style=&quot;font-size: 20px;&quot;&gt;manage booking&lt;/font&gt;" style="ellipse;whiteSpace=wrap;html=1;fillColor=#b1ddf0;strokeColor=#10739e;" parent="1" vertex="1">
          <mxGeometry x="-310" y="-1960" width="120" height="80" as="geometry" />
        </mxCell>
        <mxCell id="Z6ui31-ucEjXCs6Sb0qe-13" value="&lt;font color=&quot;#000000&quot; style=&quot;font-size: 20px;&quot;&gt;manage customer&lt;/font&gt;" style="ellipse;whiteSpace=wrap;html=1;fillColor=#b1ddf0;strokeColor=#10739e;" parent="1" vertex="1">
          <mxGeometry x="-310" y="-1870" width="120" height="80" as="geometry" />
        </mxCell>
        <mxCell id="Z6ui31-ucEjXCs6Sb0qe-18" value="" style="endArrow=classic;html=1;rounded=0;strokeColor=#000000;strokeWidth=5;" parent="1" source="Z6ui31-ucEjXCs6Sb0qe-5" target="Z6ui31-ucEjXCs6Sb0qe-8" edge="1">
          <mxGeometry width="50" height="50" relative="1" as="geometry">
            <mxPoint x="-100" y="-1880" as="sourcePoint" />
            <mxPoint x="-50" y="-1930" as="targetPoint" />
          </mxGeometry>
        </mxCell>
        <mxCell id="Z6ui31-ucEjXCs6Sb0qe-20" value="" style="endArrow=classic;html=1;rounded=0;strokeColor=#000000;entryX=0;entryY=0.5;entryDx=0;entryDy=0;strokeWidth=5;" parent="1" source="Z6ui31-ucEjXCs6Sb0qe-5" target="Z6ui31-ucEjXCs6Sb0qe-9" edge="1">
          <mxGeometry width="50" height="50" relative="1" as="geometry">
            <mxPoint x="-500" y="-2110" as="sourcePoint" />
            <mxPoint x="-450" y="-2160" as="targetPoint" />
          </mxGeometry>
        </mxCell>
        <mxCell id="Z6ui31-ucEjXCs6Sb0qe-23" value="" style="endArrow=classic;html=1;rounded=0;strokeColor=#000000;entryX=0;entryY=0.5;entryDx=0;entryDy=0;strokeWidth=5;" parent="1" source="Z6ui31-ucEjXCs6Sb0qe-5" target="Z6ui31-ucEjXCs6Sb0qe-10" edge="1">
          <mxGeometry width="50" height="50" relative="1" as="geometry">
            <mxPoint x="-520" y="-1920" as="sourcePoint" />
            <mxPoint x="-470" y="-1970" as="targetPoint" />
          </mxGeometry>
        </mxCell>
        <mxCell id="Z6ui31-ucEjXCs6Sb0qe-24" value="" style="endArrow=classic;html=1;rounded=0;strokeColor=#050505;entryX=0;entryY=0.5;entryDx=0;entryDy=0;strokeWidth=5;" parent="1" source="Z6ui31-ucEjXCs6Sb0qe-5" target="Z6ui31-ucEjXCs6Sb0qe-11" edge="1">
          <mxGeometry width="50" height="50" relative="1" as="geometry">
            <mxPoint x="-100" y="-1880" as="sourcePoint" />
            <mxPoint x="-50" y="-1930" as="targetPoint" />
          </mxGeometry>
        </mxCell>
        <mxCell id="Z6ui31-ucEjXCs6Sb0qe-25" value="" style="endArrow=classic;html=1;rounded=0;strokeColor=#000000;strokeWidth=5;entryX=-0.01;entryY=0.317;entryDx=0;entryDy=0;entryPerimeter=0;" parent="1" source="Z6ui31-ucEjXCs6Sb0qe-5" target="Z6ui31-ucEjXCs6Sb0qe-12" edge="1">
          <mxGeometry width="50" height="50" relative="1" as="geometry">
            <mxPoint x="-100" y="-1880" as="sourcePoint" />
            <mxPoint x="-50" y="-1930" as="targetPoint" />
          </mxGeometry>
        </mxCell>
        <mxCell id="Z6ui31-ucEjXCs6Sb0qe-26" value="" style="endArrow=classic;html=1;rounded=0;strokeColor=#000000;strokeWidth=5;entryX=0;entryY=0.5;entryDx=0;entryDy=0;" parent="1" source="Z6ui31-ucEjXCs6Sb0qe-5" target="Z6ui31-ucEjXCs6Sb0qe-13" edge="1">
          <mxGeometry width="50" height="50" relative="1" as="geometry">
            <mxPoint x="-100" y="-1880" as="sourcePoint" />
            <mxPoint x="-50" y="-1930" as="targetPoint" />
          </mxGeometry>
        </mxCell>
        <mxCell id="Z6ui31-ucEjXCs6Sb0qe-28" value="system user&lt;div&gt;&lt;br/&gt;&lt;/div&gt;" style="shape=umlActor;verticalLabelPosition=bottom;verticalAlign=top;html=1;outlineConnect=0;" parent="1" vertex="1">
          <mxGeometry x="1150" y="-2230" width="60" height="120" as="geometry" />
        </mxCell>
        <mxCell id="Z6ui31-ucEjXCs6Sb0qe-30" value="&lt;div style=&quot;&quot;&gt;&lt;font face=&quot;SegoeUIVariable, SegoeUI, Segoe UI, Helvetica Neue, Helvetica, Microsoft YaHei, Meiryo UI, Meiryo, Arial Unicode MS, sans-serif&quot; color=&quot;#ffffff&quot;&gt;&lt;span style=&quot;font-size: 14px; background-color: rgb(43, 43, 43);&quot;&gt;&lt;b&gt;system configration&lt;/b&gt;&lt;/span&gt;&lt;/font&gt;&lt;/div&gt;" style="ellipse;whiteSpace=wrap;html=1;fillColor=#b1ddf0;strokeColor=#10739e;align=center;" parent="1" vertex="1">
          <mxGeometry x="-70" y="-2240" width="120" height="80" as="geometry" />
        </mxCell>
        <mxCell id="Z6ui31-ucEjXCs6Sb0qe-31" value="" style="endArrow=classic;html=1;rounded=0;strokeColor=#000000;strokeWidth=3;exitX=1;exitY=0.5;exitDx=0;exitDy=0;entryX=0;entryY=0.5;entryDx=0;entryDy=0;" parent="1" source="Z6ui31-ucEjXCs6Sb0qe-8" target="Z6ui31-ucEjXCs6Sb0qe-30" edge="1">
          <mxGeometry width="50" height="50" relative="1" as="geometry">
            <mxPoint x="30" y="-2100" as="sourcePoint" />
            <mxPoint x="80" y="-2150" as="targetPoint" />
          </mxGeometry>
        </mxCell>
        <mxCell id="Z6ui31-ucEjXCs6Sb0qe-32" value="&amp;lt;&amp;lt;includes&amp;gt;&amp;gt;" style="edgeLabel;html=1;align=center;verticalAlign=middle;resizable=0;points=[];" parent="Z6ui31-ucEjXCs6Sb0qe-31" vertex="1" connectable="0">
          <mxGeometry x="0.15" y="-1" relative="1" as="geometry">
            <mxPoint x="1" as="offset" />
          </mxGeometry>
        </mxCell>
        <mxCell id="ik_8ahQZIbQPzL20nAGJ-2" value="&lt;strong style=&quot;font-size: 14px; line-height: var(--cib-type-body1-strong-line-height); font-variation-settings: normal; color: rgb(255, 255, 255); text-align: right; background-color: rgb(43, 43, 43);&quot;&gt;&lt;font face=&quot;Helvetica&quot;&gt;Room Operations&lt;/font&gt;&lt;/strong&gt;" style="ellipse;whiteSpace=wrap;html=1;fillColor=#b1ddf0;strokeColor=#10739e;" vertex="1" parent="1">
          <mxGeometry x="-65" y="-2150" width="110" height="70" as="geometry" />
        </mxCell>
        <mxCell id="ik_8ahQZIbQPzL20nAGJ-3" value="" style="endArrow=classic;html=1;rounded=0;strokeColor=#000000;strokeWidth=3;entryX=0;entryY=0.5;entryDx=0;entryDy=0;" edge="1" parent="1" target="ik_8ahQZIbQPzL20nAGJ-2">
          <mxGeometry width="50" height="50" relative="1" as="geometry">
            <mxPoint x="-210" y="-2110" as="sourcePoint" />
            <mxPoint x="-160" y="-2160" as="targetPoint" />
          </mxGeometry>
        </mxCell>
        <mxCell id="ik_8ahQZIbQPzL20nAGJ-4" value="&amp;lt;&amp;lt;includes&amp;gt;&amp;gt;" style="edgeLabel;html=1;align=center;verticalAlign=middle;resizable=0;points=[];" vertex="1" connectable="0" parent="ik_8ahQZIbQPzL20nAGJ-3">
          <mxGeometry x="-0.0521" y="-2" relative="1" as="geometry">
            <mxPoint as="offset" />
          </mxGeometry>
        </mxCell>
        <mxCell id="ik_8ahQZIbQPzL20nAGJ-5" value="&lt;strong style=&quot;font-size: 10px; line-height: var(--cib-type-body1-strong-line-height); font-variation-settings: normal; color: rgb(255, 255, 255); font-family: SegoeUIVariable, SegoeUI, &amp;quot;Segoe UI&amp;quot;, &amp;quot;Helvetica Neue&amp;quot;, Helvetica, &amp;quot;Microsoft YaHei&amp;quot;, &amp;quot;Meiryo UI&amp;quot;, Meiryo, &amp;quot;Arial Unicode MS&amp;quot;, sans-serif; text-align: right; background-color: rgb(43, 43, 43);&quot;&gt;Managing User Access Accounts&lt;/strong&gt;" style="ellipse;whiteSpace=wrap;html=1;fillColor=#b1ddf0;strokeColor=#10739e;" vertex="1" parent="1">
          <mxGeometry x="-400" y="-1640" width="100" height="50" as="geometry" />
        </mxCell>
        <mxCell id="ik_8ahQZIbQPzL20nAGJ-6" value="" style="endArrow=classic;html=1;rounded=0;strokeColor=#000000;strokeWidth=2;" edge="1" parent="1">
          <mxGeometry width="50" height="50" relative="1" as="geometry">
            <mxPoint x="-270.5" y="-1680" as="sourcePoint" />
            <mxPoint x="-270.5" y="-1710" as="targetPoint" />
          </mxGeometry>
        </mxCell>
        <mxCell id="ik_8ahQZIbQPzL20nAGJ-10" value="" style="endArrow=none;html=1;rounded=0;strokeColor=#000000;" edge="1" parent="1">
          <mxGeometry width="50" height="50" relative="1" as="geometry">
            <mxPoint x="-344.68" y="-1679.92" as="sourcePoint" />
            <mxPoint x="-50" y="-1680" as="targetPoint" />
          </mxGeometry>
        </mxCell>
        <mxCell id="ik_8ahQZIbQPzL20nAGJ-11" value="" style="endArrow=none;html=1;rounded=0;strokeColor=#050505;exitX=0.582;exitY=-0.008;exitDx=0;exitDy=0;exitPerimeter=0;" edge="1" parent="1" source="ik_8ahQZIbQPzL20nAGJ-5">
          <mxGeometry width="50" height="50" relative="1" as="geometry">
            <mxPoint x="-390" y="-1540" as="sourcePoint" />
            <mxPoint x="-340" y="-1680" as="targetPoint" />
          </mxGeometry>
        </mxCell>
        <mxCell id="ik_8ahQZIbQPzL20nAGJ-12" value="&lt;strong style=&quot;line-height: var(--cib-type-body1-strong-line-height); font-variation-settings: normal; color: rgb(255, 255, 255); font-family: SegoeUIVariable, SegoeUI, &amp;quot;Segoe UI&amp;quot;, &amp;quot;Helvetica Neue&amp;quot;, Helvetica, &amp;quot;Microsoft YaHei&amp;quot;, &amp;quot;Meiryo UI&amp;quot;, Meiryo, &amp;quot;Arial Unicode MS&amp;quot;, sans-serif; text-align: right; background-color: rgb(43, 43, 43);&quot;&gt;&lt;font style=&quot;font-size: 7px;&quot;&gt;Handling Contract Management&lt;/font&gt;&lt;/strong&gt;:" style="ellipse;whiteSpace=wrap;html=1;fillColor=#b1ddf0;strokeColor=#10739e;" vertex="1" parent="1">
          <mxGeometry x="-280" y="-1640" width="90" height="50" as="geometry" />
        </mxCell>
        <mxCell id="ik_8ahQZIbQPzL20nAGJ-13" value="" style="endArrow=none;html=1;rounded=0;strokeColor=#000000;" edge="1" parent="1">
          <mxGeometry width="50" height="50" relative="1" as="geometry">
            <mxPoint x="-240" y="-1640" as="sourcePoint" />
            <mxPoint x="-240" y="-1680" as="targetPoint" />
          </mxGeometry>
        </mxCell>
        <mxCell id="ik_8ahQZIbQPzL20nAGJ-14" value="&lt;font style=&quot;font-size: 8px;&quot;&gt;&lt;strong style=&quot;line-height: var(--cib-type-body1-strong-line-height); font-variation-settings: normal; color: rgb(255, 255, 255); font-family: SegoeUIVariable, SegoeUI, &amp;quot;Segoe UI&amp;quot;, &amp;quot;Helvetica Neue&amp;quot;, Helvetica, &amp;quot;Microsoft YaHei&amp;quot;, &amp;quot;Meiryo UI&amp;quot;, Meiryo, &amp;quot;Arial Unicode MS&amp;quot;, sans-serif; text-align: right; background-color: rgb(43, 43, 43);&quot;&gt;Providing Payroll Services&lt;/strong&gt;:&lt;/font&gt;" style="ellipse;whiteSpace=wrap;html=1;fillColor=#b1ddf0;strokeColor=#10739e;" vertex="1" parent="1">
          <mxGeometry x="-185" y="-1650" width="70" height="45" as="geometry" />
        </mxCell>
        <mxCell id="ik_8ahQZIbQPzL20nAGJ-15" value="" style="endArrow=none;html=1;rounded=0;strokeColor=#000000;exitX=0.5;exitY=0;exitDx=0;exitDy=0;" edge="1" parent="1" source="ik_8ahQZIbQPzL20nAGJ-14">
          <mxGeometry width="50" height="50" relative="1" as="geometry">
            <mxPoint x="-150" y="-1560" as="sourcePoint" />
            <mxPoint x="-150" y="-1680" as="targetPoint" />
          </mxGeometry>
        </mxCell>
        <mxCell id="ik_8ahQZIbQPzL20nAGJ-16" value="" style="endArrow=none;html=1;rounded=0;strokeColor=#000000;entryX=0.5;entryY=0;entryDx=0;entryDy=0;" edge="1" parent="1" target="ik_8ahQZIbQPzL20nAGJ-17">
          <mxGeometry width="50" height="50" relative="1" as="geometry">
            <mxPoint x="-52" y="-1680" as="sourcePoint" />
            <mxPoint x="-50" y="-1590" as="targetPoint" />
          </mxGeometry>
        </mxCell>
        <mxCell id="ik_8ahQZIbQPzL20nAGJ-17" value="&lt;strong style=&quot;line-height: var(--cib-type-body1-strong-line-height); font-variation-settings: normal; color: rgb(255, 255, 255); font-family: SegoeUIVariable, SegoeUI, &amp;quot;Segoe UI&amp;quot;, &amp;quot;Helvetica Neue&amp;quot;, Helvetica, &amp;quot;Microsoft YaHei&amp;quot;, &amp;quot;Meiryo UI&amp;quot;, Meiryo, &amp;quot;Arial Unicode MS&amp;quot;, sans-serif; text-align: right; background-color: rgb(43, 43, 43);&quot;&gt;&lt;font style=&quot;font-size: 7px;&quot;&gt;Offering Technical Support to Staff&lt;/font&gt;&lt;/strong&gt;" style="ellipse;whiteSpace=wrap;html=1;fillColor=#b1ddf0;strokeColor=#10739e;" vertex="1" parent="1">
          <mxGeometry x="-90" y="-1645" width="75" height="40" as="geometry" />
        </mxCell>
        <mxCell id="ik_8ahQZIbQPzL20nAGJ-18" value="" style="endArrow=none;html=1;rounded=0;strokeColor=#000000;" edge="1" parent="1" target="ik_8ahQZIbQPzL20nAGJ-19">
          <mxGeometry width="50" height="50" relative="1" as="geometry">
            <mxPoint x="-290" y="-1680" as="sourcePoint" />
            <mxPoint x="-290" y="-1590" as="targetPoint" />
          </mxGeometry>
        </mxCell>
        <mxCell id="ik_8ahQZIbQPzL20nAGJ-29" style="edgeStyle=orthogonalEdgeStyle;rounded=0;orthogonalLoop=1;jettySize=auto;html=1;exitX=0.5;exitY=0;exitDx=0;exitDy=0;" edge="1" parent="1" source="ik_8ahQZIbQPzL20nAGJ-19">
          <mxGeometry relative="1" as="geometry">
            <mxPoint x="-290" y="-1610" as="targetPoint" />
          </mxGeometry>
        </mxCell>
        <mxCell id="ik_8ahQZIbQPzL20nAGJ-19" value="&lt;strong style=&quot;font-size: 14px; line-height: var(--cib-type-body1-strong-line-height); font-variation-settings: normal; color: rgb(255, 255, 255); text-align: right; background-color: rgb(43, 43, 43);&quot;&gt;&lt;font face=&quot;Helvetica&quot;&gt;Marketing Planning&lt;/font&gt;&lt;/strong&gt;" style="ellipse;whiteSpace=wrap;html=1;fillColor=#b1ddf0;strokeColor=#10739e;" vertex="1" parent="1">
          <mxGeometry x="-340" y="-1590" width="100" height="60" as="geometry" />
        </mxCell>
        <mxCell id="ik_8ahQZIbQPzL20nAGJ-20" value="&lt;font style=&quot;font-size: 13px;&quot;&gt;&lt;strong style=&quot;line-height: var(--cib-type-body1-strong-line-height); font-variation-settings: normal; color: rgb(255, 255, 255); font-family: SegoeUIVariable, SegoeUI, &amp;quot;Segoe UI&amp;quot;, &amp;quot;Helvetica Neue&amp;quot;, Helvetica, &amp;quot;Microsoft YaHei&amp;quot;, &amp;quot;Meiryo UI&amp;quot;, Meiryo, &amp;quot;Arial Unicode MS&amp;quot;, sans-serif; text-align: right; background-color: rgb(43, 43, 43);&quot;&gt;Data Backup and Recovery&lt;/strong&gt;:&lt;/font&gt;" style="ellipse;whiteSpace=wrap;html=1;fillColor=#b1ddf0;strokeColor=#10739e;" vertex="1" parent="1">
          <mxGeometry x="-140" y="-1590" width="100" height="60" as="geometry" />
        </mxCell>
        <mxCell id="ik_8ahQZIbQPzL20nAGJ-22" value="" style="endArrow=none;html=1;rounded=0;strokeColor=#000000;exitX=0.5;exitY=0;exitDx=0;exitDy=0;" edge="1" parent="1" source="ik_8ahQZIbQPzL20nAGJ-20">
          <mxGeometry width="50" height="50" relative="1" as="geometry">
            <mxPoint x="-310" y="-1560" as="sourcePoint" />
            <mxPoint x="-90" y="-1680" as="targetPoint" />
          </mxGeometry>
        </mxCell>
        <mxCell id="ik_8ahQZIbQPzL20nAGJ-23" value="" style="endArrow=classic;html=1;rounded=0;strokeColor=#000000;entryX=1;entryY=0.5;entryDx=0;entryDy=0;" edge="1" parent="1" target="Z6ui31-ucEjXCs6Sb0qe-11">
          <mxGeometry width="50" height="50" relative="1" as="geometry">
            <mxPoint x="-170" y="-2020" as="sourcePoint" />
            <mxPoint x="-260" y="-2010" as="targetPoint" />
          </mxGeometry>
        </mxCell>
        <mxCell id="ik_8ahQZIbQPzL20nAGJ-24" value="" style="endArrow=none;html=1;rounded=0;strokeColor=#000000;" edge="1" parent="1">
          <mxGeometry width="50" height="50" relative="1" as="geometry">
            <mxPoint x="-170" y="-1980" as="sourcePoint" />
            <mxPoint x="-110" y="-1980" as="targetPoint" />
          </mxGeometry>
        </mxCell>
        <mxCell id="ik_8ahQZIbQPzL20nAGJ-25" value="&lt;font color=&quot;#000000&quot; style=&quot;font-size: 20px;&quot;&gt;cash&lt;/font&gt;" style="ellipse;whiteSpace=wrap;html=1;fillColor=#b1ddf0;strokeColor=#10739e;" vertex="1" parent="1">
          <mxGeometry x="-115" y="-2010" width="100" height="50" as="geometry" />
        </mxCell>
        <mxCell id="ik_8ahQZIbQPzL20nAGJ-26" value="" style="endArrow=none;html=1;rounded=0;strokeColor=#000000;" edge="1" parent="1">
          <mxGeometry width="50" height="50" relative="1" as="geometry">
            <mxPoint x="-170" y="-1980" as="sourcePoint" />
            <mxPoint x="-170" y="-2040" as="targetPoint" />
          </mxGeometry>
        </mxCell>
        <mxCell id="ik_8ahQZIbQPzL20nAGJ-27" value="&lt;font color=&quot;#000000&quot; style=&quot;font-size: 20px;&quot;&gt;payment&lt;/font&gt;" style="ellipse;whiteSpace=wrap;html=1;fillColor=#b1ddf0;strokeColor=#10739e;" vertex="1" parent="1">
          <mxGeometry x="-110" y="-2070" width="95" height="50" as="geometry" />
        </mxCell>
        <mxCell id="ik_8ahQZIbQPzL20nAGJ-28" value="" style="endArrow=none;html=1;rounded=0;strokeColor=#000000;entryX=0;entryY=0.6;entryDx=0;entryDy=0;entryPerimeter=0;" edge="1" parent="1" target="ik_8ahQZIbQPzL20nAGJ-27">
          <mxGeometry width="50" height="50" relative="1" as="geometry">
            <mxPoint x="-170" y="-2040" as="sourcePoint" />
            <mxPoint x="-110" y="-2050" as="targetPoint" />
          </mxGeometry>
        </mxCell>
        <mxCell id="ik_8ahQZIbQPzL20nAGJ-30" value="&lt;strong style=&quot;font-size: 14px; line-height: var(--cib-type-body1-strong-line-height); font-variation-settings: normal; color: rgb(255, 255, 255); font-family: SegoeUIVariable, SegoeUI, &amp;quot;Segoe UI&amp;quot;, &amp;quot;Helvetica Neue&amp;quot;, Helvetica, &amp;quot;Microsoft YaHei&amp;quot;, &amp;quot;Meiryo UI&amp;quot;, Meiryo, &amp;quot;Arial Unicode MS&amp;quot;, sans-serif; text-align: right; background-color: rgb(43, 43, 43);&quot;&gt;Hotel Reservations&lt;/strong&gt;:" style="ellipse;whiteSpace=wrap;html=1;fillColor=#b1ddf0;strokeColor=#10739e;" vertex="1" parent="1">
          <mxGeometry x="880" y="-2200" width="120" height="80" as="geometry" />
        </mxCell>
        <mxCell id="ik_8ahQZIbQPzL20nAGJ-31" value="&lt;strong style=&quot;font-size: 14px; line-height: var(--cib-type-body1-strong-line-height); font-variation-settings: normal; color: rgb(255, 255, 255); font-family: SegoeUIVariable, SegoeUI, &amp;quot;Segoe UI&amp;quot;, &amp;quot;Helvetica Neue&amp;quot;, Helvetica, &amp;quot;Microsoft YaHei&amp;quot;, &amp;quot;Meiryo UI&amp;quot;, Meiryo, &amp;quot;Arial Unicode MS&amp;quot;, sans-serif; text-align: right; background-color: rgb(43, 43, 43);&quot;&gt;View Booking Details&lt;/strong&gt;" style="ellipse;whiteSpace=wrap;html=1;fillColor=#b1ddf0;strokeColor=#10739e;" vertex="1" parent="1">
          <mxGeometry x="880" y="-2085" width="120" height="80" as="geometry" />
        </mxCell>
        <mxCell id="ik_8ahQZIbQPzL20nAGJ-32" value="&lt;strong style=&quot;font-size: 14px; line-height: var(--cib-type-body1-strong-line-height); font-variation-settings: normal; color: rgb(255, 255, 255); font-family: SegoeUIVariable, SegoeUI, &amp;quot;Segoe UI&amp;quot;, &amp;quot;Helvetica Neue&amp;quot;, Helvetica, &amp;quot;Microsoft YaHei&amp;quot;, &amp;quot;Meiryo UI&amp;quot;, Meiryo, &amp;quot;Arial Unicode MS&amp;quot;, sans-serif; text-align: right; background-color: rgb(43, 43, 43);&quot;&gt;Check-In and Check-Out&lt;/strong&gt;" style="ellipse;whiteSpace=wrap;html=1;fillColor=#b1ddf0;strokeColor=#10739e;" vertex="1" parent="1">
          <mxGeometry x="880" y="-1960" width="120" height="80" as="geometry" />
        </mxCell>
        <mxCell id="ik_8ahQZIbQPzL20nAGJ-33" value="&lt;strong style=&quot;font-size: 14px; line-height: var(--cib-type-body1-strong-line-height); font-variation-settings: normal; color: rgb(255, 255, 255); font-family: SegoeUIVariable, SegoeUI, &amp;quot;Segoe UI&amp;quot;, &amp;quot;Helvetica Neue&amp;quot;, Helvetica, &amp;quot;Microsoft YaHei&amp;quot;, &amp;quot;Meiryo UI&amp;quot;, Meiryo, &amp;quot;Arial Unicode MS&amp;quot;, sans-serif; text-align: right; background-color: rgb(43, 43, 43);&quot;&gt;Request Services&lt;/strong&gt;" style="ellipse;whiteSpace=wrap;html=1;fillColor=#b1ddf0;strokeColor=#10739e;" vertex="1" parent="1">
          <mxGeometry x="880" y="-1870" width="120" height="80" as="geometry" />
        </mxCell>
        <mxCell id="ik_8ahQZIbQPzL20nAGJ-34" value="&lt;strong style=&quot;font-size: 14px; line-height: var(--cib-type-body1-strong-line-height); font-variation-settings: normal; color: rgb(255, 255, 255); font-family: SegoeUIVariable, SegoeUI, &amp;quot;Segoe UI&amp;quot;, &amp;quot;Helvetica Neue&amp;quot;, Helvetica, &amp;quot;Microsoft YaHei&amp;quot;, &amp;quot;Meiryo UI&amp;quot;, Meiryo, &amp;quot;Arial Unicode MS&amp;quot;, sans-serif; text-align: right; background-color: rgb(43, 43, 43);&quot;&gt;Explore Hotel Amenities&lt;/strong&gt;" style="ellipse;whiteSpace=wrap;html=1;fillColor=#b1ddf0;strokeColor=#10739e;" vertex="1" parent="1">
          <mxGeometry x="930" y="-1430" width="120" height="80" as="geometry" />
        </mxCell>
        <mxCell id="ik_8ahQZIbQPzL20nAGJ-35" value="&lt;strong style=&quot;font-size: 14px; line-height: var(--cib-type-body1-strong-line-height); font-variation-settings: normal; color: rgb(255, 255, 255); font-family: SegoeUIVariable, SegoeUI, &amp;quot;Segoe UI&amp;quot;, &amp;quot;Helvetica Neue&amp;quot;, Helvetica, &amp;quot;Microsoft YaHei&amp;quot;, &amp;quot;Meiryo UI&amp;quot;, Meiryo, &amp;quot;Arial Unicode MS&amp;quot;, sans-serif; text-align: right; background-color: rgb(43, 43, 43);&quot;&gt;Provide Feedback and Reviews&lt;/strong&gt;" style="ellipse;whiteSpace=wrap;html=1;fillColor=#b1ddf0;strokeColor=#10739e;" vertex="1" parent="1">
          <mxGeometry x="880" y="-1610" width="120" height="80" as="geometry" />
        </mxCell>
        <mxCell id="ik_8ahQZIbQPzL20nAGJ-37" value="&lt;strong style=&quot;font-size: 14px; line-height: var(--cib-type-body1-strong-line-height); font-variation-settings: normal; color: rgb(255, 255, 255); font-family: SegoeUIVariable, SegoeUI, &amp;quot;Segoe UI&amp;quot;, &amp;quot;Helvetica Neue&amp;quot;, Helvetica, &amp;quot;Microsoft YaHei&amp;quot;, &amp;quot;Meiryo UI&amp;quot;, Meiryo, &amp;quot;Arial Unicode MS&amp;quot;, sans-serif; text-align: right; background-color: rgb(43, 43, 43);&quot;&gt;Contact Customer Support&lt;/strong&gt;:" style="ellipse;whiteSpace=wrap;html=1;fillColor=#b1ddf0;strokeColor=#10739e;" vertex="1" parent="1">
          <mxGeometry x="880" y="-1760" width="120" height="80" as="geometry" />
        </mxCell>
        <mxCell id="ik_8ahQZIbQPzL20nAGJ-38" value="&lt;strong style=&quot;font-size: 14px; line-height: var(--cib-type-body1-strong-line-height); font-variation-settings: normal; color: rgb(255, 255, 255); font-family: SegoeUIVariable, SegoeUI, &amp;quot;Segoe UI&amp;quot;, &amp;quot;Helvetica Neue&amp;quot;, Helvetica, &amp;quot;Microsoft YaHei&amp;quot;, &amp;quot;Meiryo UI&amp;quot;, Meiryo, &amp;quot;Arial Unicode MS&amp;quot;, sans-serif; text-align: right; background-color: rgb(43, 43, 43);&quot;&gt;Hotel Reservation Form&lt;/strong&gt;" style="ellipse;whiteSpace=wrap;html=1;fillColor=#b1ddf0;strokeColor=#10739e;" vertex="1" parent="1">
          <mxGeometry x="680" y="-2250" width="110" height="60" as="geometry" />
        </mxCell>
        <mxCell id="ik_8ahQZIbQPzL20nAGJ-39" value="&lt;strong style=&quot;font-size: 14px; line-height: var(--cib-type-body1-strong-line-height); font-variation-settings: normal; color: rgb(255, 255, 255); font-family: SegoeUIVariable, SegoeUI, &amp;quot;Segoe UI&amp;quot;, &amp;quot;Helvetica Neue&amp;quot;, Helvetica, &amp;quot;Microsoft YaHei&amp;quot;, &amp;quot;Meiryo UI&amp;quot;, Meiryo, &amp;quot;Arial Unicode MS&amp;quot;, sans-serif; text-align: right; background-color: rgb(43, 43, 43);&quot;&gt;Email Reservation Request&lt;/strong&gt;" style="ellipse;whiteSpace=wrap;html=1;fillColor=#b1ddf0;strokeColor=#10739e;" vertex="1" parent="1">
          <mxGeometry x="630" y="-2180" width="115" height="60" as="geometry" />
        </mxCell>
        <mxCell id="ik_8ahQZIbQPzL20nAGJ-40" value="" style="endArrow=classic;html=1;rounded=0;strokeColor=#000000;exitX=0;exitY=0.5;exitDx=0;exitDy=0;entryX=1;entryY=0.5;entryDx=0;entryDy=0;strokeWidth=3;" edge="1" parent="1" source="ik_8ahQZIbQPzL20nAGJ-30" target="ik_8ahQZIbQPzL20nAGJ-39">
          <mxGeometry width="50" height="50" relative="1" as="geometry">
            <mxPoint x="810" y="-2100" as="sourcePoint" />
            <mxPoint x="860" y="-2150" as="targetPoint" />
          </mxGeometry>
        </mxCell>
        <mxCell id="ik_8ahQZIbQPzL20nAGJ-43" value="&amp;lt;&amp;lt;includes&amp;gt;&amp;gt;" style="edgeLabel;html=1;align=center;verticalAlign=middle;resizable=0;points=[];" vertex="1" connectable="0" parent="ik_8ahQZIbQPzL20nAGJ-40">
          <mxGeometry x="-0.0456" y="-2" relative="1" as="geometry">
            <mxPoint as="offset" />
          </mxGeometry>
        </mxCell>
        <mxCell id="ik_8ahQZIbQPzL20nAGJ-41" value="" style="endArrow=classic;html=1;rounded=0;entryX=1;entryY=0.5;entryDx=0;entryDy=0;strokeColor=#050505;strokeWidth=3;" edge="1" parent="1" source="ik_8ahQZIbQPzL20nAGJ-30" target="ik_8ahQZIbQPzL20nAGJ-38">
          <mxGeometry width="50" height="50" relative="1" as="geometry">
            <mxPoint x="610" y="-2020" as="sourcePoint" />
            <mxPoint x="660" y="-2070" as="targetPoint" />
          </mxGeometry>
        </mxCell>
        <mxCell id="ik_8ahQZIbQPzL20nAGJ-42" value="&amp;lt;&amp;lt;includes&amp;gt;&amp;gt;" style="edgeLabel;html=1;align=center;verticalAlign=middle;resizable=0;points=[];" vertex="1" connectable="0" parent="ik_8ahQZIbQPzL20nAGJ-41">
          <mxGeometry x="-0.0411" relative="1" as="geometry">
            <mxPoint as="offset" />
          </mxGeometry>
        </mxCell>
        <mxCell id="ik_8ahQZIbQPzL20nAGJ-44" value="&lt;strong style=&quot;font-size: 14px; line-height: var(--cib-type-body1-strong-line-height); font-variation-settings: normal; color: rgb(255, 255, 255); font-family: SegoeUIVariable, SegoeUI, &amp;quot;Segoe UI&amp;quot;, &amp;quot;Helvetica Neue&amp;quot;, Helvetica, &amp;quot;Microsoft YaHei&amp;quot;, &amp;quot;Meiryo UI&amp;quot;, Meiryo, &amp;quot;Arial Unicode MS&amp;quot;, sans-serif; text-align: right; background-color: rgb(43, 43, 43);&quot;&gt;Choose Dates&lt;/strong&gt;" style="ellipse;whiteSpace=wrap;html=1;fillColor=#b1ddf0;strokeColor=#10739e;" vertex="1" parent="1">
          <mxGeometry x="585" y="-2005" width="115" height="60" as="geometry" />
        </mxCell>
        <mxCell id="ik_8ahQZIbQPzL20nAGJ-45" value="&lt;strong style=&quot;font-size: 14px; line-height: var(--cib-type-body1-strong-line-height); font-variation-settings: normal; color: rgb(255, 255, 255); font-family: SegoeUIVariable, SegoeUI, &amp;quot;Segoe UI&amp;quot;, &amp;quot;Helvetica Neue&amp;quot;, Helvetica, &amp;quot;Microsoft YaHei&amp;quot;, &amp;quot;Meiryo UI&amp;quot;, Meiryo, &amp;quot;Arial Unicode MS&amp;quot;, sans-serif; text-align: right; background-color: rgb(43, 43, 43);&quot;&gt;Select Room&lt;/strong&gt;" style="ellipse;whiteSpace=wrap;html=1;fillColor=#b1ddf0;strokeColor=#10739e;" vertex="1" parent="1">
          <mxGeometry x="590" y="-2100" width="110" height="60" as="geometry" />
        </mxCell>
        <mxCell id="ik_8ahQZIbQPzL20nAGJ-48" value="&lt;strong style=&quot;font-size: 14px; line-height: var(--cib-type-body1-strong-line-height); font-variation-settings: normal; color: rgb(255, 255, 255); font-family: SegoeUIVariable, SegoeUI, &amp;quot;Segoe UI&amp;quot;, &amp;quot;Helvetica Neue&amp;quot;, Helvetica, &amp;quot;Microsoft YaHei&amp;quot;, &amp;quot;Meiryo UI&amp;quot;, Meiryo, &amp;quot;Arial Unicode MS&amp;quot;, sans-serif; text-align: right; background-color: rgb(43, 43, 43);&quot;&gt;Add Special Requests&lt;/strong&gt;" style="ellipse;whiteSpace=wrap;html=1;fillColor=#b1ddf0;strokeColor=#10739e;" vertex="1" parent="1">
          <mxGeometry x="420" y="-2060" width="120" height="70" as="geometry" />
        </mxCell>
        <mxCell id="ik_8ahQZIbQPzL20nAGJ-49" value="&lt;strong style=&quot;font-size: 14px; line-height: var(--cib-type-body1-strong-line-height); font-variation-settings: normal; color: rgb(255, 255, 255); font-family: SegoeUIVariable, SegoeUI, &amp;quot;Segoe UI&amp;quot;, &amp;quot;Helvetica Neue&amp;quot;, Helvetica, &amp;quot;Microsoft YaHei&amp;quot;, &amp;quot;Meiryo UI&amp;quot;, Meiryo, &amp;quot;Arial Unicode MS&amp;quot;, sans-serif; text-align: right; background-color: rgb(43, 43, 43);&quot;&gt;Apply Discounnt&lt;/strong&gt;" style="ellipse;whiteSpace=wrap;html=1;fillColor=#b1ddf0;strokeColor=#10739e;" vertex="1" parent="1">
          <mxGeometry x="430" y="-2145" width="110" height="60" as="geometry" />
        </mxCell>
        <mxCell id="ik_8ahQZIbQPzL20nAGJ-50" value="" style="endArrow=classic;html=1;rounded=0;strokeColor=#050505;strokeWidth=3;entryX=1;entryY=0.5;entryDx=0;entryDy=0;exitX=0.082;exitY=0.223;exitDx=0;exitDy=0;exitPerimeter=0;" edge="1" parent="1" source="ik_8ahQZIbQPzL20nAGJ-31" target="ik_8ahQZIbQPzL20nAGJ-45">
          <mxGeometry width="50" height="50" relative="1" as="geometry">
            <mxPoint x="610" y="-1920" as="sourcePoint" />
            <mxPoint x="660" y="-1970" as="targetPoint" />
          </mxGeometry>
        </mxCell>
        <mxCell id="ik_8ahQZIbQPzL20nAGJ-51" value="&amp;lt;&amp;lt;includes&amp;gt;&amp;gt;" style="edgeLabel;html=1;align=center;verticalAlign=middle;resizable=0;points=[];" vertex="1" connectable="0" parent="ik_8ahQZIbQPzL20nAGJ-50">
          <mxGeometry x="-0.1223" relative="1" as="geometry">
            <mxPoint as="offset" />
          </mxGeometry>
        </mxCell>
        <mxCell id="ik_8ahQZIbQPzL20nAGJ-52" value="" style="endArrow=classic;html=1;rounded=0;entryX=1;entryY=0.5;entryDx=0;entryDy=0;strokeColor=#000000;strokeWidth=3;exitX=0.3;exitY=0.96;exitDx=0;exitDy=0;exitPerimeter=0;" edge="1" parent="1" source="ik_8ahQZIbQPzL20nAGJ-31" target="ik_8ahQZIbQPzL20nAGJ-44">
          <mxGeometry width="50" height="50" relative="1" as="geometry">
            <mxPoint x="610" y="-1930" as="sourcePoint" />
            <mxPoint x="660" y="-1980" as="targetPoint" />
          </mxGeometry>
        </mxCell>
        <mxCell id="ik_8ahQZIbQPzL20nAGJ-54" value="&amp;lt;&amp;lt;includes&amp;gt;&amp;gt;" style="edgeLabel;html=1;align=center;verticalAlign=middle;resizable=0;points=[];" vertex="1" connectable="0" parent="ik_8ahQZIbQPzL20nAGJ-52">
          <mxGeometry x="-0.0357" relative="1" as="geometry">
            <mxPoint as="offset" />
          </mxGeometry>
        </mxCell>
        <mxCell id="ik_8ahQZIbQPzL20nAGJ-55" value="" style="endArrow=classic;html=1;rounded=0;strokeColor=#000000;exitX=0.975;exitY=0.692;exitDx=0;exitDy=0;exitPerimeter=0;strokeWidth=3;entryX=0.04;entryY=0.686;entryDx=0;entryDy=0;entryPerimeter=0;" edge="1" parent="1" source="ik_8ahQZIbQPzL20nAGJ-48" target="ik_8ahQZIbQPzL20nAGJ-31">
          <mxGeometry width="50" height="50" relative="1" as="geometry">
            <mxPoint x="530" y="-1920" as="sourcePoint" />
            <mxPoint x="580" y="-1970" as="targetPoint" />
          </mxGeometry>
        </mxCell>
        <mxCell id="ik_8ahQZIbQPzL20nAGJ-56" value="&amp;lt;&amp;lt;extends&amp;gt;&amp;gt;" style="edgeLabel;html=1;align=center;verticalAlign=middle;resizable=0;points=[];" vertex="1" connectable="0" parent="ik_8ahQZIbQPzL20nAGJ-55">
          <mxGeometry x="0.2178" y="5" relative="1" as="geometry">
            <mxPoint as="offset" />
          </mxGeometry>
        </mxCell>
        <mxCell id="ik_8ahQZIbQPzL20nAGJ-58" value="" style="endArrow=classic;html=1;rounded=0;strokeColor=#000000;strokeWidth=3;exitX=0.989;exitY=0.301;exitDx=0;exitDy=0;entryX=0.251;entryY=0.086;entryDx=0;entryDy=0;entryPerimeter=0;exitPerimeter=0;" edge="1" parent="1" source="ik_8ahQZIbQPzL20nAGJ-49" target="ik_8ahQZIbQPzL20nAGJ-31">
          <mxGeometry width="50" height="50" relative="1" as="geometry">
            <mxPoint x="530" y="-1890" as="sourcePoint" />
            <mxPoint x="580" y="-1940" as="targetPoint" />
          </mxGeometry>
        </mxCell>
        <mxCell id="ik_8ahQZIbQPzL20nAGJ-59" value="&amp;lt;&amp;lt;extends&amp;gt;&amp;gt;" style="edgeLabel;html=1;align=center;verticalAlign=middle;resizable=0;points=[];" vertex="1" connectable="0" parent="ik_8ahQZIbQPzL20nAGJ-58">
          <mxGeometry x="-0.0918" y="-5" relative="1" as="geometry">
            <mxPoint as="offset" />
          </mxGeometry>
        </mxCell>
        <mxCell id="ik_8ahQZIbQPzL20nAGJ-60" value="&lt;strong style=&quot;line-height: var(--cib-type-body1-strong-line-height); font-variation-settings: normal; color: rgb(255, 255, 255); font-family: SegoeUIVariable, SegoeUI, &amp;quot;Segoe UI&amp;quot;, &amp;quot;Helvetica Neue&amp;quot;, Helvetica, &amp;quot;Microsoft YaHei&amp;quot;, &amp;quot;Meiryo UI&amp;quot;, Meiryo, &amp;quot;Arial Unicode MS&amp;quot;, sans-serif; text-align: right; background-color: rgb(43, 43, 43); font-size: 10px;&quot;&gt;Select Menu Items&lt;/strong&gt;" style="ellipse;whiteSpace=wrap;html=1;fillColor=#b1ddf0;strokeColor=#10739e;" vertex="1" parent="1">
          <mxGeometry x="520" y="-1920" width="100" height="50" as="geometry" />
        </mxCell>
        <mxCell id="ik_8ahQZIbQPzL20nAGJ-61" value="&lt;strong style=&quot;font-size: 14px; line-height: var(--cib-type-body1-strong-line-height); font-variation-settings: normal; color: rgb(255, 255, 255); font-family: SegoeUIVariable, SegoeUI, &amp;quot;Segoe UI&amp;quot;, &amp;quot;Helvetica Neue&amp;quot;, Helvetica, &amp;quot;Microsoft YaHei&amp;quot;, &amp;quot;Meiryo UI&amp;quot;, Meiryo, &amp;quot;Arial Unicode MS&amp;quot;, sans-serif; text-align: right; background-color: rgb(43, 43, 43);&quot;&gt;Specify Delivery Time&lt;/strong&gt;" style="ellipse;whiteSpace=wrap;html=1;fillColor=#b1ddf0;strokeColor=#10739e;" vertex="1" parent="1">
          <mxGeometry x="480" y="-1770" width="130" height="70" as="geometry" />
        </mxCell>
        <mxCell id="ik_8ahQZIbQPzL20nAGJ-62" value="" style="endArrow=classic;html=1;rounded=0;entryX=1;entryY=0.5;entryDx=0;entryDy=0;strokeColor=#000000;exitX=0;exitY=0;exitDx=0;exitDy=0;strokeWidth=3;" edge="1" parent="1" source="ik_8ahQZIbQPzL20nAGJ-33" target="ik_8ahQZIbQPzL20nAGJ-60">
          <mxGeometry width="50" height="50" relative="1" as="geometry">
            <mxPoint x="720" y="-1740" as="sourcePoint" />
            <mxPoint x="770" y="-1790" as="targetPoint" />
          </mxGeometry>
        </mxCell>
        <mxCell id="ik_8ahQZIbQPzL20nAGJ-63" value="&amp;lt;&amp;lt;includes&amp;gt;&amp;gt;" style="edgeLabel;html=1;align=center;verticalAlign=middle;resizable=0;points=[];" vertex="1" connectable="0" parent="ik_8ahQZIbQPzL20nAGJ-62">
          <mxGeometry x="-0.2977" y="2" relative="1" as="geometry">
            <mxPoint as="offset" />
          </mxGeometry>
        </mxCell>
        <mxCell id="ik_8ahQZIbQPzL20nAGJ-64" value="" style="endArrow=classic;html=1;rounded=0;entryX=1;entryY=0.5;entryDx=0;entryDy=0;exitX=0.3;exitY=0.999;exitDx=0;exitDy=0;exitPerimeter=0;strokeWidth=3;strokeColor=#000000;" edge="1" parent="1" source="ik_8ahQZIbQPzL20nAGJ-33" target="ik_8ahQZIbQPzL20nAGJ-61">
          <mxGeometry width="50" height="50" relative="1" as="geometry">
            <mxPoint x="720" y="-1740" as="sourcePoint" />
            <mxPoint x="770" y="-1790" as="targetPoint" />
          </mxGeometry>
        </mxCell>
        <mxCell id="ik_8ahQZIbQPzL20nAGJ-65" value="&amp;lt;&amp;lt;includes&amp;gt;&amp;gt;" style="edgeLabel;html=1;align=center;verticalAlign=middle;resizable=0;points=[];" vertex="1" connectable="0" parent="ik_8ahQZIbQPzL20nAGJ-64">
          <mxGeometry x="0.1051" y="1" relative="1" as="geometry">
            <mxPoint as="offset" />
          </mxGeometry>
        </mxCell>
        <mxCell id="ik_8ahQZIbQPzL20nAGJ-66" value="&lt;strong style=&quot;font-size: 14px; line-height: var(--cib-type-body1-strong-line-height); font-variation-settings: normal; color: rgb(255, 255, 255); font-family: SegoeUIVariable, SegoeUI, &amp;quot;Segoe UI&amp;quot;, &amp;quot;Helvetica Neue&amp;quot;, Helvetica, &amp;quot;Microsoft YaHei&amp;quot;, &amp;quot;Meiryo UI&amp;quot;, Meiryo, &amp;quot;Arial Unicode MS&amp;quot;, sans-serif; text-align: right; background-color: rgb(43, 43, 43);&quot;&gt;Notify Housekeeping&lt;/strong&gt;" style="ellipse;whiteSpace=wrap;html=1;fillColor=#b1ddf0;strokeColor=#10739e;" vertex="1" parent="1">
          <mxGeometry x="280" y="-1920" width="120" height="80" as="geometry" />
        </mxCell>
        <mxCell id="ik_8ahQZIbQPzL20nAGJ-67" value="&lt;strong style=&quot;font-size: 14px; line-height: var(--cib-type-body1-strong-line-height); font-variation-settings: normal; color: rgb(255, 255, 255); font-family: SegoeUIVariable, SegoeUI, &amp;quot;Segoe UI&amp;quot;, &amp;quot;Helvetica Neue&amp;quot;, Helvetica, &amp;quot;Microsoft YaHei&amp;quot;, &amp;quot;Meiryo UI&amp;quot;, Meiryo, &amp;quot;Arial Unicode MS&amp;quot;, sans-serif; text-align: right; background-color: rgb(43, 43, 43);&quot;&gt;Adjust Billing&lt;/strong&gt;" style="ellipse;whiteSpace=wrap;html=1;fillColor=#b1ddf0;strokeColor=#10739e;" vertex="1" parent="1">
          <mxGeometry x="270.88" y="-1810" width="120" height="80" as="geometry" />
        </mxCell>
        <mxCell id="ik_8ahQZIbQPzL20nAGJ-68" value="" style="endArrow=classic;html=1;rounded=0;strokeWidth=3;strokeColor=#000000;" edge="1" parent="1" source="ik_8ahQZIbQPzL20nAGJ-66">
          <mxGeometry width="50" height="50" relative="1" as="geometry">
            <mxPoint x="720" y="-1740" as="sourcePoint" />
            <mxPoint x="880" y="-1840" as="targetPoint" />
          </mxGeometry>
        </mxCell>
        <mxCell id="ik_8ahQZIbQPzL20nAGJ-69" value="&amp;lt;&amp;lt;extends&amp;gt;&amp;gt;" style="edgeLabel;html=1;align=center;verticalAlign=middle;resizable=0;points=[];" vertex="1" connectable="0" parent="ik_8ahQZIbQPzL20nAGJ-68">
          <mxGeometry x="0.2101" y="3" relative="1" as="geometry">
            <mxPoint as="offset" />
          </mxGeometry>
        </mxCell>
        <mxCell id="ik_8ahQZIbQPzL20nAGJ-71" value="" style="endArrow=classic;html=1;rounded=0;entryX=0.033;entryY=0.651;entryDx=0;entryDy=0;entryPerimeter=0;strokeColor=#000000;strokeWidth=3;" edge="1" parent="1" source="ik_8ahQZIbQPzL20nAGJ-67" target="ik_8ahQZIbQPzL20nAGJ-33">
          <mxGeometry width="50" height="50" relative="1" as="geometry">
            <mxPoint x="560" y="-1660" as="sourcePoint" />
            <mxPoint x="610" y="-1710" as="targetPoint" />
          </mxGeometry>
        </mxCell>
        <mxCell id="ik_8ahQZIbQPzL20nAGJ-72" value="&amp;lt;&amp;lt;extends&amp;gt;&amp;gt;" style="edgeLabel;html=1;align=center;verticalAlign=middle;resizable=0;points=[];" vertex="1" connectable="0" parent="ik_8ahQZIbQPzL20nAGJ-71">
          <mxGeometry x="0.3536" relative="1" as="geometry">
            <mxPoint as="offset" />
          </mxGeometry>
        </mxCell>
        <mxCell id="ik_8ahQZIbQPzL20nAGJ-73" value="&lt;strong style=&quot;font-size: 14px; line-height: var(--cib-type-body1-strong-line-height); font-variation-settings: normal; color: rgb(255, 255, 255); font-family: SegoeUIVariable, SegoeUI, &amp;quot;Segoe UI&amp;quot;, &amp;quot;Helvetica Neue&amp;quot;, Helvetica, &amp;quot;Microsoft YaHei&amp;quot;, &amp;quot;Meiryo UI&amp;quot;, Meiryo, &amp;quot;Arial Unicode MS&amp;quot;, sans-serif; text-align: right; background-color: rgb(43, 43, 43);&quot;&gt;Business Center&lt;/strong&gt;" style="ellipse;whiteSpace=wrap;html=1;fillColor=#b1ddf0;strokeColor=#10739e;" vertex="1" parent="1">
          <mxGeometry x="960" y="-1290" width="100" height="70" as="geometry" />
        </mxCell>
        <mxCell id="ik_8ahQZIbQPzL20nAGJ-74" value="&lt;strong style=&quot;line-height: var(--cib-type-body1-strong-line-height); font-variation-settings: normal; color: rgb(255, 255, 255); font-family: SegoeUIVariable, SegoeUI, &amp;quot;Segoe UI&amp;quot;, &amp;quot;Helvetica Neue&amp;quot;, Helvetica, &amp;quot;Microsoft YaHei&amp;quot;, &amp;quot;Meiryo UI&amp;quot;, Meiryo, &amp;quot;Arial Unicode MS&amp;quot;, sans-serif; text-align: right; background-color: rgb(43, 43, 43);&quot;&gt;Restaurants and Bars&lt;/strong&gt;" style="ellipse;whiteSpace=wrap;html=1;fillColor=#b1ddf0;strokeColor=#10739e;" vertex="1" parent="1">
          <mxGeometry x="850" y="-1270" width="110" height="70" as="geometry" />
        </mxCell>
        <mxCell id="ik_8ahQZIbQPzL20nAGJ-75" value="&lt;strong style=&quot;font-size: 14px; line-height: var(--cib-type-body1-strong-line-height); font-variation-settings: normal; color: rgb(255, 255, 255); font-family: SegoeUIVariable, SegoeUI, &amp;quot;Segoe UI&amp;quot;, &amp;quot;Helvetica Neue&amp;quot;, Helvetica, &amp;quot;Microsoft YaHei&amp;quot;, &amp;quot;Meiryo UI&amp;quot;, Meiryo, &amp;quot;Arial Unicode MS&amp;quot;, sans-serif; text-align: right; background-color: rgb(43, 43, 43);&quot;&gt;Fitness Center or Gym&lt;/strong&gt;" style="ellipse;whiteSpace=wrap;html=1;fillColor=#b1ddf0;strokeColor=#10739e;" vertex="1" parent="1">
          <mxGeometry x="700" y="-1270" width="110" height="70" as="geometry" />
        </mxCell>
        <mxCell id="ik_8ahQZIbQPzL20nAGJ-76" value="&lt;strong style=&quot;line-height: var(--cib-type-body1-strong-line-height); font-variation-settings: normal; color: rgb(255, 255, 255); font-family: SegoeUIVariable, SegoeUI, &amp;quot;Segoe UI&amp;quot;, &amp;quot;Helvetica Neue&amp;quot;, Helvetica, &amp;quot;Microsoft YaHei&amp;quot;, &amp;quot;Meiryo UI&amp;quot;, Meiryo, &amp;quot;Arial Unicode MS&amp;quot;, sans-serif; text-align: right; background-color: rgb(43, 43, 43);&quot;&gt;Swimming Pool and Spa&lt;/strong&gt;" style="ellipse;whiteSpace=wrap;html=1;fillColor=#b1ddf0;strokeColor=#10739e;" vertex="1" parent="1">
          <mxGeometry x="540" y="-1280" width="110" height="70" as="geometry" />
        </mxCell>
        <mxCell id="ik_8ahQZIbQPzL20nAGJ-77" value="&lt;strong style=&quot;font-size: 14px; line-height: var(--cib-type-body1-strong-line-height); font-variation-settings: normal; color: rgb(255, 255, 255); font-family: SegoeUIVariable, SegoeUI, &amp;quot;Segoe UI&amp;quot;, &amp;quot;Helvetica Neue&amp;quot;, Helvetica, &amp;quot;Microsoft YaHei&amp;quot;, &amp;quot;Meiryo UI&amp;quot;, Meiryo, &amp;quot;Arial Unicode MS&amp;quot;, sans-serif; text-align: right; background-color: rgb(43, 43, 43);&quot;&gt;Free Wi-Fi and Entertainment&lt;/strong&gt;" style="ellipse;whiteSpace=wrap;html=1;fillColor=#b1ddf0;strokeColor=#10739e;" vertex="1" parent="1">
          <mxGeometry x="770" y="-1150" width="110" height="70" as="geometry" />
        </mxCell>
        <mxCell id="ik_8ahQZIbQPzL20nAGJ-78" value="" style="endArrow=classic;html=1;rounded=0;strokeColor=#000000;entryX=0.5;entryY=1;entryDx=0;entryDy=0;strokeWidth=3;" edge="1" parent="1" target="ik_8ahQZIbQPzL20nAGJ-34">
          <mxGeometry width="50" height="50" relative="1" as="geometry">
            <mxPoint x="940" y="-1310" as="sourcePoint" />
            <mxPoint x="740" y="-1440" as="targetPoint" />
          </mxGeometry>
        </mxCell>
        <mxCell id="ik_8ahQZIbQPzL20nAGJ-80" value="" style="endArrow=none;html=1;rounded=0;strokeColor=#000000;strokeWidth=3;" edge="1" parent="1">
          <mxGeometry width="50" height="50" relative="1" as="geometry">
            <mxPoint x="590" y="-1298.25" as="sourcePoint" />
            <mxPoint x="1000" y="-1308.25" as="targetPoint" />
          </mxGeometry>
        </mxCell>
        <mxCell id="ik_8ahQZIbQPzL20nAGJ-81" value="" style="endArrow=none;html=1;rounded=0;strokeColor=#000000;entryX=0.396;entryY=0.018;entryDx=0;entryDy=0;entryPerimeter=0;strokeWidth=3;" edge="1" parent="1" target="ik_8ahQZIbQPzL20nAGJ-73">
          <mxGeometry width="50" height="50" relative="1" as="geometry">
            <mxPoint x="1000" y="-1310" as="sourcePoint" />
            <mxPoint x="960" y="-1320" as="targetPoint" />
          </mxGeometry>
        </mxCell>
        <mxCell id="ik_8ahQZIbQPzL20nAGJ-82" value="" style="endArrow=none;html=1;rounded=0;" edge="1" parent="1">
          <mxGeometry width="50" height="50" relative="1" as="geometry">
            <mxPoint x="690" y="-1390" as="sourcePoint" />
            <mxPoint x="740" y="-1440" as="targetPoint" />
          </mxGeometry>
        </mxCell>
        <mxCell id="ik_8ahQZIbQPzL20nAGJ-83" value="" style="endArrow=none;html=1;rounded=0;strokeColor=#000000;exitX=0.458;exitY=0.014;exitDx=0;exitDy=0;exitPerimeter=0;strokeWidth=3;" edge="1" parent="1" source="ik_8ahQZIbQPzL20nAGJ-76">
          <mxGeometry width="50" height="50" relative="1" as="geometry">
            <mxPoint x="553" y="-1290" as="sourcePoint" />
            <mxPoint x="590" y="-1300" as="targetPoint" />
          </mxGeometry>
        </mxCell>
        <mxCell id="ik_8ahQZIbQPzL20nAGJ-88" value="" style="endArrow=none;html=1;rounded=0;strokeColor=#000000;strokeWidth=3;" edge="1" parent="1" source="ik_8ahQZIbQPzL20nAGJ-75">
          <mxGeometry width="50" height="50" relative="1" as="geometry">
            <mxPoint x="570" y="-1270" as="sourcePoint" />
            <mxPoint x="680" y="-1300" as="targetPoint" />
            <Array as="points">
              <mxPoint x="760" y="-1300" />
              <mxPoint x="680" y="-1300" />
            </Array>
          </mxGeometry>
        </mxCell>
        <mxCell id="ik_8ahQZIbQPzL20nAGJ-89" value="" style="endArrow=none;html=1;rounded=0;strokeColor=#000000;strokeWidth=3;" edge="1" parent="1" source="ik_8ahQZIbQPzL20nAGJ-77">
          <mxGeometry width="50" height="50" relative="1" as="geometry">
            <mxPoint x="570" y="-1270" as="sourcePoint" />
            <mxPoint x="830" y="-1300" as="targetPoint" />
            <Array as="points">
              <mxPoint x="830" y="-1280" />
            </Array>
          </mxGeometry>
        </mxCell>
        <mxCell id="ik_8ahQZIbQPzL20nAGJ-90" value="" style="endArrow=none;html=1;rounded=0;strokeColor=#000000;strokeWidth=3;" edge="1" parent="1" source="ik_8ahQZIbQPzL20nAGJ-74">
          <mxGeometry width="50" height="50" relative="1" as="geometry">
            <mxPoint x="570" y="-1270" as="sourcePoint" />
            <mxPoint x="900" y="-1310" as="targetPoint" />
            <Array as="points">
              <mxPoint x="900" y="-1310" />
            </Array>
          </mxGeometry>
        </mxCell>
        <mxCell id="ik_8ahQZIbQPzL20nAGJ-91" value="&lt;font color=&quot;#000000&quot; style=&quot;font-size: 15px;&quot;&gt;rate stars&lt;/font&gt;" style="ellipse;whiteSpace=wrap;html=1;fillColor=#b1ddf0;strokeColor=#10739e;" vertex="1" parent="1">
          <mxGeometry x="695" y="-1617.5" width="90" height="55" as="geometry" />
        </mxCell>
        <mxCell id="ik_8ahQZIbQPzL20nAGJ-97" value="" style="edgeStyle=orthogonalEdgeStyle;rounded=0;orthogonalLoop=1;jettySize=auto;html=1;" edge="1" parent="1" source="ik_8ahQZIbQPzL20nAGJ-92" target="ik_8ahQZIbQPzL20nAGJ-35">
          <mxGeometry relative="1" as="geometry" />
        </mxCell>
        <mxCell id="ik_8ahQZIbQPzL20nAGJ-92" value="&lt;font color=&quot;#000000&quot;&gt;leave comment&lt;/font&gt;" style="ellipse;whiteSpace=wrap;html=1;fillColor=#b1ddf0;strokeColor=#10739e;" vertex="1" parent="1">
          <mxGeometry x="685" y="-1550" width="100" height="50" as="geometry" />
        </mxCell>
        <mxCell id="ik_8ahQZIbQPzL20nAGJ-93" value="" style="endArrow=none;html=1;rounded=0;strokeColor=#000000;strokeWidth=3;exitX=1;exitY=0.5;exitDx=0;exitDy=0;" edge="1" parent="1" source="ik_8ahQZIbQPzL20nAGJ-91">
          <mxGeometry width="50" height="50" relative="1" as="geometry">
            <mxPoint x="780" y="-1540" as="sourcePoint" />
            <mxPoint x="830" y="-1590" as="targetPoint" />
          </mxGeometry>
        </mxCell>
        <mxCell id="ik_8ahQZIbQPzL20nAGJ-94" value="" style="endArrow=classic;html=1;rounded=0;strokeColor=#000000;strokeWidth=3;entryX=0;entryY=0.5;entryDx=0;entryDy=0;" edge="1" parent="1" target="ik_8ahQZIbQPzL20nAGJ-35">
          <mxGeometry width="50" height="50" relative="1" as="geometry">
            <mxPoint x="830" y="-1560" as="sourcePoint" />
            <mxPoint x="880" y="-1565" as="targetPoint" />
          </mxGeometry>
        </mxCell>
        <mxCell id="ik_8ahQZIbQPzL20nAGJ-95" value="" style="endArrow=none;html=1;rounded=0;strokeColor=#000000;strokeWidth=3;" edge="1" parent="1">
          <mxGeometry width="50" height="50" relative="1" as="geometry">
            <mxPoint x="826" y="-1530" as="sourcePoint" />
            <mxPoint x="826" y="-1590" as="targetPoint" />
          </mxGeometry>
        </mxCell>
        <mxCell id="ik_8ahQZIbQPzL20nAGJ-96" value="" style="endArrow=none;html=1;rounded=0;strokeColor=#000000;strokeWidth=3;" edge="1" parent="1" source="ik_8ahQZIbQPzL20nAGJ-92">
          <mxGeometry width="50" height="50" relative="1" as="geometry">
            <mxPoint x="790" y="-1470" as="sourcePoint" />
            <mxPoint x="830" y="-1530" as="targetPoint" />
          </mxGeometry>
        </mxCell>
        <mxCell id="ik_8ahQZIbQPzL20nAGJ-98" value="&lt;strong style=&quot;line-height: var(--cib-type-body1-strong-line-height); font-variation-settings: normal; color: rgb(255, 255, 255); font-family: SegoeUIVariable, SegoeUI, &amp;quot;Segoe UI&amp;quot;, &amp;quot;Helvetica Neue&amp;quot;, Helvetica, &amp;quot;Microsoft YaHei&amp;quot;, &amp;quot;Meiryo UI&amp;quot;, Meiryo, &amp;quot;Arial Unicode MS&amp;quot;, sans-serif; text-align: right; background-color: rgb(43, 43, 43);&quot;&gt;&lt;font style=&quot;font-size: 10px;&quot;&gt;Select Support Category&lt;/font&gt;&lt;/strong&gt;" style="ellipse;whiteSpace=wrap;html=1;fillColor=#b1ddf0;strokeColor=#10739e;" vertex="1" parent="1">
          <mxGeometry x="435" y="-1680" width="100" height="50" as="geometry" />
        </mxCell>
        <mxCell id="ik_8ahQZIbQPzL20nAGJ-99" value="" style="endArrow=classic;html=1;rounded=0;strokeColor=#000000;strokeWidth=3;exitX=0;exitY=0.5;exitDx=0;exitDy=0;entryX=1;entryY=0.5;entryDx=0;entryDy=0;" edge="1" parent="1" source="ik_8ahQZIbQPzL20nAGJ-37" target="ik_8ahQZIbQPzL20nAGJ-98">
          <mxGeometry width="50" height="50" relative="1" as="geometry">
            <mxPoint x="730" y="-1730" as="sourcePoint" />
            <mxPoint x="780" y="-1780" as="targetPoint" />
          </mxGeometry>
        </mxCell>
        <mxCell id="ik_8ahQZIbQPzL20nAGJ-100" value="&amp;lt;&amp;lt;includes&amp;gt;&amp;gt;" style="edgeLabel;html=1;align=center;verticalAlign=middle;resizable=0;points=[];" vertex="1" connectable="0" parent="ik_8ahQZIbQPzL20nAGJ-99">
          <mxGeometry x="0.0239" y="1" relative="1" as="geometry">
            <mxPoint as="offset" />
          </mxGeometry>
        </mxCell>
        <mxCell id="ik_8ahQZIbQPzL20nAGJ-101" value="&lt;strong style=&quot;line-height: var(--cib-type-body1-strong-line-height); font-variation-settings: normal; color: rgb(255, 255, 255); font-family: SegoeUIVariable, SegoeUI, &amp;quot;Segoe UI&amp;quot;, &amp;quot;Helvetica Neue&amp;quot;, Helvetica, &amp;quot;Microsoft YaHei&amp;quot;, &amp;quot;Meiryo UI&amp;quot;, Meiryo, &amp;quot;Arial Unicode MS&amp;quot;, sans-serif; text-align: right; background-color: rgb(43, 43, 43); font-size: 11px;&quot;&gt;Provide Contact Details&lt;/strong&gt;" style="ellipse;whiteSpace=wrap;html=1;fillColor=#b1ddf0;strokeColor=#10739e;" vertex="1" parent="1">
          <mxGeometry x="435" y="-1620" width="105" height="50" as="geometry" />
        </mxCell>
        <mxCell id="ik_8ahQZIbQPzL20nAGJ-102" value="" style="endArrow=classic;html=1;rounded=0;strokeColor=#000000;strokeWidth=3;exitX=0.077;exitY=0.797;exitDx=0;exitDy=0;exitPerimeter=0;entryX=1;entryY=0.5;entryDx=0;entryDy=0;" edge="1" parent="1" source="ik_8ahQZIbQPzL20nAGJ-37" target="ik_8ahQZIbQPzL20nAGJ-101">
          <mxGeometry width="50" height="50" relative="1" as="geometry">
            <mxPoint x="730" y="-1730" as="sourcePoint" />
            <mxPoint x="780" y="-1780" as="targetPoint" />
          </mxGeometry>
        </mxCell>
        <mxCell id="ik_8ahQZIbQPzL20nAGJ-103" value="&amp;lt;&amp;lt;includes&amp;gt;&amp;gt;" style="edgeLabel;html=1;align=center;verticalAlign=middle;resizable=0;points=[];" vertex="1" connectable="0" parent="ik_8ahQZIbQPzL20nAGJ-102">
          <mxGeometry x="0.3919" relative="1" as="geometry">
            <mxPoint as="offset" />
          </mxGeometry>
        </mxCell>
        <mxCell id="ik_8ahQZIbQPzL20nAGJ-105" value="" style="endArrow=classic;html=1;rounded=0;strokeColor=#080808;entryX=1;entryY=0.375;entryDx=0;entryDy=0;entryPerimeter=0;strokeWidth=5;" edge="1" parent="1" source="Z6ui31-ucEjXCs6Sb0qe-28" target="ik_8ahQZIbQPzL20nAGJ-37">
          <mxGeometry width="50" height="50" relative="1" as="geometry">
            <mxPoint x="290" y="-1605" as="sourcePoint" />
            <mxPoint x="340" y="-1655" as="targetPoint" />
          </mxGeometry>
        </mxCell>
        <mxCell id="ik_8ahQZIbQPzL20nAGJ-106" value="" style="endArrow=classic;html=1;rounded=0;strokeColor=#000000;entryX=1;entryY=0;entryDx=0;entryDy=0;strokeWidth=5;" edge="1" parent="1" source="Z6ui31-ucEjXCs6Sb0qe-28" target="ik_8ahQZIbQPzL20nAGJ-35">
          <mxGeometry width="50" height="50" relative="1" as="geometry">
            <mxPoint x="330" y="-1562.5" as="sourcePoint" />
            <mxPoint x="380" y="-1612.5" as="targetPoint" />
          </mxGeometry>
        </mxCell>
        <mxCell id="ik_8ahQZIbQPzL20nAGJ-109" value="" style="endArrow=classic;html=1;rounded=0;strokeColor=#000000;entryX=1;entryY=0.5;entryDx=0;entryDy=0;strokeWidth=5;" edge="1" parent="1" source="Z6ui31-ucEjXCs6Sb0qe-28" target="ik_8ahQZIbQPzL20nAGJ-32">
          <mxGeometry width="50" height="50" relative="1" as="geometry">
            <mxPoint x="385" y="-1680" as="sourcePoint" />
            <mxPoint x="435" y="-1730" as="targetPoint" />
          </mxGeometry>
        </mxCell>
        <mxCell id="ik_8ahQZIbQPzL20nAGJ-110" value="" style="endArrow=classic;html=1;rounded=0;strokeColor=#000000;exitX=0.5;exitY=0.5;exitDx=0;exitDy=0;exitPerimeter=0;entryX=1;entryY=0.5;entryDx=0;entryDy=0;strokeWidth=5;" edge="1" parent="1" source="Z6ui31-ucEjXCs6Sb0qe-28" target="ik_8ahQZIbQPzL20nAGJ-31">
          <mxGeometry width="50" height="50" relative="1" as="geometry">
            <mxPoint x="410" y="-1670" as="sourcePoint" />
            <mxPoint x="460" y="-1720" as="targetPoint" />
          </mxGeometry>
        </mxCell>
        <mxCell id="ik_8ahQZIbQPzL20nAGJ-111" value="" style="endArrow=classic;html=1;rounded=0;strokeColor=#000000;entryX=1;entryY=0.5;entryDx=0;entryDy=0;strokeWidth=5;" edge="1" parent="1" source="Z6ui31-ucEjXCs6Sb0qe-28" target="ik_8ahQZIbQPzL20nAGJ-33">
          <mxGeometry width="50" height="50" relative="1" as="geometry">
            <mxPoint x="390.88" y="-1630" as="sourcePoint" />
            <mxPoint x="440.88" y="-1680" as="targetPoint" />
          </mxGeometry>
        </mxCell>
        <mxCell id="ik_8ahQZIbQPzL20nAGJ-112" value="" style="endArrow=classic;html=1;rounded=0;strokeColor=#000000;exitX=0.5;exitY=0.5;exitDx=0;exitDy=0;exitPerimeter=0;entryX=1;entryY=0.5;entryDx=0;entryDy=0;strokeWidth=5;" edge="1" parent="1" source="Z6ui31-ucEjXCs6Sb0qe-28" target="ik_8ahQZIbQPzL20nAGJ-30">
          <mxGeometry width="50" height="50" relative="1" as="geometry">
            <mxPoint x="455" y="-1680" as="sourcePoint" />
            <mxPoint x="505" y="-1730" as="targetPoint" />
          </mxGeometry>
        </mxCell>
        <mxCell id="ik_8ahQZIbQPzL20nAGJ-113" value="" style="endArrow=classic;html=1;rounded=0;strokeColor=#000000;entryX=0.5;entryY=0;entryDx=0;entryDy=0;strokeWidth=5;" edge="1" parent="1" source="Z6ui31-ucEjXCs6Sb0qe-28" target="ik_8ahQZIbQPzL20nAGJ-34">
          <mxGeometry width="50" height="50" relative="1" as="geometry">
            <mxPoint x="610" y="-1610" as="sourcePoint" />
            <mxPoint x="660" y="-1660" as="targetPoint" />
          </mxGeometry>
        </mxCell>
        <mxCell id="ik_8ahQZIbQPzL20nAGJ-114" value="employee" style="shape=umlActor;verticalLabelPosition=bottom;verticalAlign=top;html=1;outlineConnect=0;" vertex="1" parent="1">
          <mxGeometry x="-610" y="-1370" width="70" height="150" as="geometry" />
        </mxCell>
        <mxCell id="ik_8ahQZIbQPzL20nAGJ-115" value="" style="endArrow=classic;html=1;rounded=0;strokeColor=#000000;entryX=-0.001;entryY=0.341;entryDx=0;entryDy=0;entryPerimeter=0;strokeWidth=4;" edge="1" parent="1" source="ik_8ahQZIbQPzL20nAGJ-124" target="ik_8ahQZIbQPzL20nAGJ-32">
          <mxGeometry width="50" height="50" relative="1" as="geometry">
            <mxPoint x="-438" y="-1380" as="sourcePoint" />
            <mxPoint x="-388" y="-1430" as="targetPoint" />
          </mxGeometry>
        </mxCell>
        <mxCell id="ik_8ahQZIbQPzL20nAGJ-126" value="i&amp;lt;&amp;lt;includes&amp;gt;&amp;gt;" style="edgeLabel;html=1;align=center;verticalAlign=middle;resizable=0;points=[];" vertex="1" connectable="0" parent="ik_8ahQZIbQPzL20nAGJ-115">
          <mxGeometry x="-0.6696" y="4" relative="1" as="geometry">
            <mxPoint as="offset" />
          </mxGeometry>
        </mxCell>
        <mxCell id="ik_8ahQZIbQPzL20nAGJ-116" value="" style="endArrow=classic;html=1;rounded=0;strokeColor=#000000;strokeWidth=5;exitX=0.5;exitY=0.5;exitDx=0;exitDy=0;exitPerimeter=0;entryX=0.01;entryY=0.686;entryDx=0;entryDy=0;entryPerimeter=0;" edge="1" parent="1" source="ik_8ahQZIbQPzL20nAGJ-114" target="Z6ui31-ucEjXCs6Sb0qe-9">
          <mxGeometry width="50" height="50" relative="1" as="geometry">
            <mxPoint x="-420" y="-1410" as="sourcePoint" />
            <mxPoint x="-312" y="-2082" as="targetPoint" />
          </mxGeometry>
        </mxCell>
        <mxCell id="ik_8ahQZIbQPzL20nAGJ-117" value="" style="endArrow=classic;html=1;rounded=0;strokeWidth=5;strokeColor=#000000;entryX=0;entryY=1;entryDx=0;entryDy=0;" edge="1" parent="1" source="ik_8ahQZIbQPzL20nAGJ-114" target="Z6ui31-ucEjXCs6Sb0qe-11">
          <mxGeometry width="50" height="50" relative="1" as="geometry">
            <mxPoint x="140" y="-1730" as="sourcePoint" />
            <mxPoint x="190" y="-1780" as="targetPoint" />
          </mxGeometry>
        </mxCell>
        <mxCell id="ik_8ahQZIbQPzL20nAGJ-118" value="" style="endArrow=classic;html=1;rounded=0;strokeWidth=5;strokeColor=#000000;entryX=0;entryY=1;entryDx=0;entryDy=0;" edge="1" parent="1" source="ik_8ahQZIbQPzL20nAGJ-114" target="Z6ui31-ucEjXCs6Sb0qe-12">
          <mxGeometry width="50" height="50" relative="1" as="geometry">
            <mxPoint x="140" y="-1730" as="sourcePoint" />
            <mxPoint x="190" y="-1780" as="targetPoint" />
          </mxGeometry>
        </mxCell>
        <mxCell id="ik_8ahQZIbQPzL20nAGJ-120" value="" style="endArrow=classic;html=1;rounded=0;exitX=1;exitY=0.3333333333333333;exitDx=0;exitDy=0;exitPerimeter=0;strokeWidth=5;strokeColor=#000000;entryX=0;entryY=1;entryDx=0;entryDy=0;" edge="1" parent="1" source="ik_8ahQZIbQPzL20nAGJ-114" target="Z6ui31-ucEjXCs6Sb0qe-13">
          <mxGeometry width="50" height="50" relative="1" as="geometry">
            <mxPoint x="210" y="-1800" as="sourcePoint" />
            <mxPoint x="260" y="-1850" as="targetPoint" />
          </mxGeometry>
        </mxCell>
        <mxCell id="ik_8ahQZIbQPzL20nAGJ-121" value="" style="endArrow=classic;html=1;rounded=0;strokeWidth=5;strokeColor=#000000;" edge="1" parent="1" source="ik_8ahQZIbQPzL20nAGJ-114" target="Z6ui31-ucEjXCs6Sb0qe-10">
          <mxGeometry width="50" height="50" relative="1" as="geometry">
            <mxPoint x="210" y="-1800" as="sourcePoint" />
            <mxPoint x="260" y="-1850" as="targetPoint" />
            <Array as="points">
              <mxPoint x="-170" y="-1580" />
            </Array>
          </mxGeometry>
        </mxCell>
        <mxCell id="ik_8ahQZIbQPzL20nAGJ-125" value="" style="endArrow=classic;html=1;rounded=0;strokeColor=#000000;entryX=-0.001;entryY=0.341;entryDx=0;entryDy=0;entryPerimeter=0;strokeWidth=4;" edge="1" parent="1" source="ik_8ahQZIbQPzL20nAGJ-114" target="ik_8ahQZIbQPzL20nAGJ-124">
          <mxGeometry width="50" height="50" relative="1" as="geometry">
            <mxPoint x="-540" y="-1310" as="sourcePoint" />
            <mxPoint x="880" y="-1933" as="targetPoint" />
          </mxGeometry>
        </mxCell>
        <mxCell id="ik_8ahQZIbQPzL20nAGJ-124" value="&lt;strong style=&quot;font-size: 14px; line-height: var(--cib-type-body1-strong-line-height); font-variation-settings: normal; color: rgb(255, 255, 255); font-family: SegoeUIVariable, SegoeUI, &amp;quot;Segoe UI&amp;quot;, &amp;quot;Helvetica Neue&amp;quot;, Helvetica, &amp;quot;Microsoft YaHei&amp;quot;, &amp;quot;Meiryo UI&amp;quot;, Meiryo, &amp;quot;Arial Unicode MS&amp;quot;, sans-serif; text-align: right; background-color: rgb(43, 43, 43);&quot;&gt;Receptionist&lt;/strong&gt;" style="ellipse;whiteSpace=wrap;html=1;fillColor=#b1ddf0;strokeColor=#10739e;" vertex="1" parent="1">
          <mxGeometry x="-270" y="-1430" width="120" height="80" as="geometry" />
        </mxCell>
        <mxCell id="ik_8ahQZIbQPzL20nAGJ-127" value="" style="endArrow=classic;html=1;rounded=0;strokeColor=#000000;entryX=0;entryY=0.5;entryDx=0;entryDy=0;strokeWidth=5;exitX=0.967;exitY=0.301;exitDx=0;exitDy=0;exitPerimeter=0;" edge="1" parent="1" source="ik_8ahQZIbQPzL20nAGJ-124" target="ik_8ahQZIbQPzL20nAGJ-128">
          <mxGeometry width="50" height="50" relative="1" as="geometry">
            <mxPoint x="-140" y="-1390" as="sourcePoint" />
            <mxPoint x="70" y="-1530" as="targetPoint" />
          </mxGeometry>
        </mxCell>
        <mxCell id="ik_8ahQZIbQPzL20nAGJ-129" value="&amp;lt;&amp;lt;includes&amp;gt;&amp;gt;" style="edgeLabel;html=1;align=center;verticalAlign=middle;resizable=0;points=[];" vertex="1" connectable="0" parent="ik_8ahQZIbQPzL20nAGJ-127">
          <mxGeometry x="-0.3438" y="2" relative="1" as="geometry">
            <mxPoint x="-1" as="offset" />
          </mxGeometry>
        </mxCell>
        <mxCell id="ik_8ahQZIbQPzL20nAGJ-128" value="&lt;strong style=&quot;line-height: var(--cib-type-body1-strong-line-height); font-variation-settings: normal; color: rgb(255, 255, 255); font-family: SegoeUIVariable, SegoeUI, &amp;quot;Segoe UI&amp;quot;, &amp;quot;Helvetica Neue&amp;quot;, Helvetica, &amp;quot;Microsoft YaHei&amp;quot;, &amp;quot;Meiryo UI&amp;quot;, Meiryo, &amp;quot;Arial Unicode MS&amp;quot;, sans-serif; text-align: right; background-color: rgb(43, 43, 43); font-size: 11px;&quot;&gt;Room Assignments&lt;/strong&gt;" style="ellipse;whiteSpace=wrap;html=1;fillColor=#b1ddf0;strokeColor=#10739e;" vertex="1" parent="1">
          <mxGeometry y="-1460" width="80" height="50" as="geometry" />
        </mxCell>
        <mxCell id="ik_8ahQZIbQPzL20nAGJ-130" value="&lt;strong style=&quot;font-size: 14px; line-height: var(--cib-type-body1-strong-line-height); font-variation-settings: normal; color: rgb(255, 255, 255); font-family: SegoeUIVariable, SegoeUI, &amp;quot;Segoe UI&amp;quot;, &amp;quot;Helvetica Neue&amp;quot;, Helvetica, &amp;quot;Microsoft YaHei&amp;quot;, &amp;quot;Meiryo UI&amp;quot;, Meiryo, &amp;quot;Arial Unicode MS&amp;quot;, sans-serif; text-align: right; background-color: rgb(43, 43, 43);&quot;&gt;Billing&lt;/strong&gt;" style="ellipse;whiteSpace=wrap;html=1;fillColor=#b1ddf0;strokeColor=#10739e;" vertex="1" parent="1">
          <mxGeometry x="-20" y="-1400" width="90" height="50" as="geometry" />
        </mxCell>
        <mxCell id="ik_8ahQZIbQPzL20nAGJ-131" value="&lt;font style=&quot;font-size: 9px;&quot;&gt;&lt;strong style=&quot;line-height: var(--cib-type-body1-strong-line-height); font-variation-settings: normal; color: rgb(255, 255, 255); font-family: SegoeUIVariable, SegoeUI, &amp;quot;Segoe UI&amp;quot;, &amp;quot;Helvetica Neue&amp;quot;, Helvetica, &amp;quot;Microsoft YaHei&amp;quot;, &amp;quot;Meiryo UI&amp;quot;, Meiryo, &amp;quot;Arial Unicode MS&amp;quot;, sans-serif; text-align: right; background-color: rgb(43, 43, 43);&quot;&gt;Reservation Management&lt;/strong&gt;:&lt;/font&gt;" style="ellipse;whiteSpace=wrap;html=1;fillColor=#b1ddf0;strokeColor=#10739e;" vertex="1" parent="1">
          <mxGeometry x="-92.5" y="-1335" width="80" height="45" as="geometry" />
        </mxCell>
        <mxCell id="ik_8ahQZIbQPzL20nAGJ-132" value="" style="endArrow=classic;html=1;rounded=0;strokeWidth=5;strokeColor=#000000;entryX=0;entryY=0.5;entryDx=0;entryDy=0;exitX=1;exitY=0.5;exitDx=0;exitDy=0;" edge="1" parent="1" source="ik_8ahQZIbQPzL20nAGJ-124" target="ik_8ahQZIbQPzL20nAGJ-130">
          <mxGeometry width="50" height="50" relative="1" as="geometry">
            <mxPoint x="-140" y="-1375" as="sourcePoint" />
            <mxPoint x="170" y="-1580" as="targetPoint" />
          </mxGeometry>
        </mxCell>
        <mxCell id="ik_8ahQZIbQPzL20nAGJ-134" value="&amp;lt;&amp;lt;including&amp;gt;&amp;gt;" style="edgeLabel;html=1;align=center;verticalAlign=middle;resizable=0;points=[];" vertex="1" connectable="0" parent="ik_8ahQZIbQPzL20nAGJ-132">
          <mxGeometry x="0.4536" y="-3" relative="1" as="geometry">
            <mxPoint x="-1" as="offset" />
          </mxGeometry>
        </mxCell>
        <mxCell id="ik_8ahQZIbQPzL20nAGJ-133" value="" style="endArrow=classic;html=1;rounded=0;entryX=0;entryY=0.5;entryDx=0;entryDy=0;strokeWidth=5;strokeColor=#1c1c1c;exitX=0.977;exitY=0.686;exitDx=0;exitDy=0;exitPerimeter=0;" edge="1" parent="1" source="ik_8ahQZIbQPzL20nAGJ-124" target="ik_8ahQZIbQPzL20nAGJ-131">
          <mxGeometry width="50" height="50" relative="1" as="geometry">
            <mxPoint x="120" y="-1530" as="sourcePoint" />
            <mxPoint x="170" y="-1580" as="targetPoint" />
          </mxGeometry>
        </mxCell>
        <mxCell id="ik_8ahQZIbQPzL20nAGJ-135" value="&amp;lt;&amp;lt;including&amp;gt;&amp;gt;" style="edgeLabel;html=1;align=center;verticalAlign=middle;resizable=0;points=[];" vertex="1" connectable="0" parent="ik_8ahQZIbQPzL20nAGJ-133">
          <mxGeometry x="0.4451" y="-5" relative="1" as="geometry">
            <mxPoint x="-1" as="offset" />
          </mxGeometry>
        </mxCell>
        <mxCell id="ik_8ahQZIbQPzL20nAGJ-137" value="&#xa;&lt;strong style=&quot;font-size: 14px; line-height: var(--cib-type-body1-strong-line-height); font-weight: bold; font-variation-settings: normal; color: rgb(255, 255, 255); font-family: SegoeUIVariable, SegoeUI, &amp;quot;Segoe UI&amp;quot;, &amp;quot;Helvetica Neue&amp;quot;, Helvetica, &amp;quot;Microsoft YaHei&amp;quot;, &amp;quot;Meiryo UI&amp;quot;, Meiryo, &amp;quot;Arial Unicode MS&amp;quot;, sans-serif; font-style: normal; font-variant-ligatures: normal; font-variant-caps: normal; letter-spacing: normal; orphans: 2; text-align: right; text-indent: 0px; text-transform: none; widows: 2; word-spacing: 0px; -webkit-text-stroke-width: 0px; background-color: rgb(43, 43, 43); text-decoration-thickness: initial; text-decoration-style: initial; text-decoration-color: initial;&quot;&gt;Housekeeping&lt;/strong&gt;&#xa;&#xa;" style="ellipse;whiteSpace=wrap;html=1;fillColor=#b1ddf0;strokeColor=#10739e;" vertex="1" parent="1">
          <mxGeometry x="-270" y="-1275" width="120" height="80" as="geometry" />
        </mxCell>
        <mxCell id="ik_8ahQZIbQPzL20nAGJ-138" value="" style="endArrow=classic;html=1;rounded=0;entryX=0;entryY=0.5;entryDx=0;entryDy=0;strokeWidth=5;strokeColor=#000000;" edge="1" parent="1" source="ik_8ahQZIbQPzL20nAGJ-114" target="ik_8ahQZIbQPzL20nAGJ-137">
          <mxGeometry width="50" height="50" relative="1" as="geometry">
            <mxPoint x="120" y="-1220" as="sourcePoint" />
            <mxPoint x="170" y="-1270" as="targetPoint" />
          </mxGeometry>
        </mxCell>
        <mxCell id="ik_8ahQZIbQPzL20nAGJ-139" value="&lt;strong style=&quot;font-size: 14px; line-height: var(--cib-type-body1-strong-line-height); font-variation-settings: normal; color: rgb(255, 255, 255); font-family: SegoeUIVariable, SegoeUI, &amp;quot;Segoe UI&amp;quot;, &amp;quot;Helvetica Neue&amp;quot;, Helvetica, &amp;quot;Microsoft YaHei&amp;quot;, &amp;quot;Meiryo UI&amp;quot;, Meiryo, &amp;quot;Arial Unicode MS&amp;quot;, sans-serif; text-align: right; background-color: rgb(43, 43, 43);&quot;&gt;Room Status Update&lt;/strong&gt;" style="ellipse;whiteSpace=wrap;html=1;fillColor=#b1ddf0;strokeColor=#10739e;" vertex="1" parent="1">
          <mxGeometry x="-55" y="-1244" width="115" height="64" as="geometry" />
        </mxCell>
        <mxCell id="ik_8ahQZIbQPzL20nAGJ-140" value="&lt;strong style=&quot;font-size: 14px; line-height: var(--cib-type-body1-strong-line-height); font-variation-settings: normal; color: rgb(255, 255, 255); font-family: SegoeUIVariable, SegoeUI, &amp;quot;Segoe UI&amp;quot;, &amp;quot;Helvetica Neue&amp;quot;, Helvetica, &amp;quot;Microsoft YaHei&amp;quot;, &amp;quot;Meiryo UI&amp;quot;, Meiryo, &amp;quot;Arial Unicode MS&amp;quot;, sans-serif; text-align: right; background-color: rgb(43, 43, 43);&quot;&gt;Inventory Control&lt;/strong&gt;:" style="ellipse;whiteSpace=wrap;html=1;fillColor=#b1ddf0;strokeColor=#10739e;" vertex="1" parent="1">
          <mxGeometry x="-57" y="-1150" width="117" height="50" as="geometry" />
        </mxCell>
        <mxCell id="ik_8ahQZIbQPzL20nAGJ-141" value="&lt;strong style=&quot;font-size: 14px; line-height: var(--cib-type-body1-strong-line-height); font-variation-settings: normal; color: rgb(255, 255, 255); font-family: SegoeUIVariable, SegoeUI, &amp;quot;Segoe UI&amp;quot;, &amp;quot;Helvetica Neue&amp;quot;, Helvetica, &amp;quot;Microsoft YaHei&amp;quot;, &amp;quot;Meiryo UI&amp;quot;, Meiryo, &amp;quot;Arial Unicode MS&amp;quot;, sans-serif; text-align: right; background-color: rgb(43, 43, 43);&quot;&gt;Maintenance Request&lt;/strong&gt;" style="ellipse;whiteSpace=wrap;html=1;fillColor=#b1ddf0;strokeColor=#10739e;" vertex="1" parent="1">
          <mxGeometry x="-60" y="-1090" width="120" height="50" as="geometry" />
        </mxCell>
        <mxCell id="ik_8ahQZIbQPzL20nAGJ-142" value="" style="endArrow=classic;html=1;rounded=0;exitX=0.974;exitY=0.379;exitDx=0;exitDy=0;exitPerimeter=0;strokeWidth=5;strokeColor=#000000;" edge="1" parent="1" source="ik_8ahQZIbQPzL20nAGJ-137" target="ik_8ahQZIbQPzL20nAGJ-139">
          <mxGeometry width="50" height="50" relative="1" as="geometry">
            <mxPoint x="-140" y="-1090" as="sourcePoint" />
            <mxPoint x="-90" y="-1140" as="targetPoint" />
          </mxGeometry>
        </mxCell>
        <mxCell id="ik_8ahQZIbQPzL20nAGJ-145" value="&amp;lt;&amp;lt;includes&amp;gt;&amp;gt;" style="edgeLabel;html=1;align=center;verticalAlign=middle;resizable=0;points=[];" vertex="1" connectable="0" parent="ik_8ahQZIbQPzL20nAGJ-142">
          <mxGeometry x="-0.1941" relative="1" as="geometry">
            <mxPoint as="offset" />
          </mxGeometry>
        </mxCell>
        <mxCell id="ik_8ahQZIbQPzL20nAGJ-143" value="" style="endArrow=classic;html=1;rounded=0;exitX=0.967;exitY=0.635;exitDx=0;exitDy=0;exitPerimeter=0;entryX=0.052;entryY=0.329;entryDx=0;entryDy=0;entryPerimeter=0;strokeWidth=5;strokeColor=#050505;" edge="1" parent="1" source="ik_8ahQZIbQPzL20nAGJ-137" target="ik_8ahQZIbQPzL20nAGJ-140">
          <mxGeometry width="50" height="50" relative="1" as="geometry">
            <mxPoint x="-140" y="-1090" as="sourcePoint" />
            <mxPoint x="-90" y="-1140" as="targetPoint" />
          </mxGeometry>
        </mxCell>
        <mxCell id="ik_8ahQZIbQPzL20nAGJ-146" value="&amp;lt;&amp;lt;includes&amp;gt;&amp;gt;" style="edgeLabel;html=1;align=center;verticalAlign=middle;resizable=0;points=[];" vertex="1" connectable="0" parent="ik_8ahQZIbQPzL20nAGJ-143">
          <mxGeometry x="0.0737" y="3" relative="1" as="geometry">
            <mxPoint as="offset" />
          </mxGeometry>
        </mxCell>
        <mxCell id="ik_8ahQZIbQPzL20nAGJ-144" value="" style="endArrow=classic;html=1;rounded=0;exitX=1;exitY=1;exitDx=0;exitDy=0;entryX=0.039;entryY=0.356;entryDx=0;entryDy=0;entryPerimeter=0;strokeWidth=5;strokeColor=#000000;" edge="1" parent="1" source="ik_8ahQZIbQPzL20nAGJ-137" target="ik_8ahQZIbQPzL20nAGJ-141">
          <mxGeometry width="50" height="50" relative="1" as="geometry">
            <mxPoint x="-140" y="-1090" as="sourcePoint" />
            <mxPoint x="-90" y="-1140" as="targetPoint" />
          </mxGeometry>
        </mxCell>
        <mxCell id="ik_8ahQZIbQPzL20nAGJ-147" value="&amp;lt;&amp;lt;includes&amp;gt;&amp;gt;" style="edgeLabel;html=1;align=center;verticalAlign=middle;resizable=0;points=[];" vertex="1" connectable="0" parent="ik_8ahQZIbQPzL20nAGJ-144">
          <mxGeometry x="0.3241" y="-2" relative="1" as="geometry">
            <mxPoint x="1" as="offset" />
          </mxGeometry>
        </mxCell>
        <mxCell id="ik_8ahQZIbQPzL20nAGJ-148" value="&lt;strong style=&quot;font-size: 19px; line-height: var(--cib-type-body1-strong-line-height); font-variation-settings: normal; color: rgb(255, 255, 255); font-family: SegoeUIVariable, SegoeUI, &amp;quot;Segoe UI&amp;quot;, &amp;quot;Helvetica Neue&amp;quot;, Helvetica, &amp;quot;Microsoft YaHei&amp;quot;, &amp;quot;Meiryo UI&amp;quot;, Meiryo, &amp;quot;Arial Unicode MS&amp;quot;, sans-serif; text-align: right; background-color: rgb(43, 43, 43);&quot;&gt;Cook&lt;/strong&gt;" style="ellipse;whiteSpace=wrap;html=1;fillColor=#b1ddf0;strokeColor=#10739e;" vertex="1" parent="1">
          <mxGeometry x="40" y="-1000" width="120" height="80" as="geometry" />
        </mxCell>
        <mxCell id="ik_8ahQZIbQPzL20nAGJ-149" value="" style="endArrow=classic;html=1;rounded=0;strokeWidth=5;strokeColor=#000000;" edge="1" parent="1" source="ik_8ahQZIbQPzL20nAGJ-114" target="ik_8ahQZIbQPzL20nAGJ-148">
          <mxGeometry width="50" height="50" relative="1" as="geometry">
            <mxPoint x="-60" y="-1170" as="sourcePoint" />
            <mxPoint x="-10" y="-1220" as="targetPoint" />
          </mxGeometry>
        </mxCell>
        <mxCell id="ik_8ahQZIbQPzL20nAGJ-150" value="" style="endArrow=classic;html=1;rounded=0;strokeWidth=5;strokeColor=#000000;" edge="1" parent="1">
          <mxGeometry width="50" height="50" relative="1" as="geometry">
            <mxPoint x="99.38" y="-880" as="sourcePoint" />
            <mxPoint x="99.38" y="-920" as="targetPoint" />
          </mxGeometry>
        </mxCell>
        <mxCell id="ik_8ahQZIbQPzL20nAGJ-151" value="&lt;strong style=&quot;font-size: 14px; line-height: var(--cib-type-body1-strong-line-height); font-variation-settings: normal; color: rgb(255, 255, 255); font-family: SegoeUIVariable, SegoeUI, &amp;quot;Segoe UI&amp;quot;, &amp;quot;Helvetica Neue&amp;quot;, Helvetica, &amp;quot;Microsoft YaHei&amp;quot;, &amp;quot;Meiryo UI&amp;quot;, Meiryo, &amp;quot;Arial Unicode MS&amp;quot;, sans-serif; text-align: right; background-color: rgb(43, 43, 43);&quot;&gt;Menu Planning&lt;/strong&gt;" style="ellipse;whiteSpace=wrap;html=1;fillColor=#b1ddf0;strokeColor=#10739e;" vertex="1" parent="1">
          <mxGeometry x="250" y="-830" width="120" height="80" as="geometry" />
        </mxCell>
        <mxCell id="ik_8ahQZIbQPzL20nAGJ-152" value="" style="endArrow=none;html=1;rounded=0;strokeWidth=5;strokeColor=#000000;" edge="1" parent="1">
          <mxGeometry width="50" height="50" relative="1" as="geometry">
            <mxPoint x="310" y="-880" as="sourcePoint" />
            <mxPoint x="-80" y="-870" as="targetPoint" />
            <Array as="points" />
          </mxGeometry>
        </mxCell>
        <mxCell id="ik_8ahQZIbQPzL20nAGJ-153" value="" style="endArrow=none;html=1;rounded=0;strokeWidth=5;strokeColor=#000000;exitX=0.5;exitY=0;exitDx=0;exitDy=0;" edge="1" parent="1" source="ik_8ahQZIbQPzL20nAGJ-151">
          <mxGeometry width="50" height="50" relative="1" as="geometry">
            <mxPoint x="-60" y="-1050" as="sourcePoint" />
            <mxPoint x="310" y="-880" as="targetPoint" />
          </mxGeometry>
        </mxCell>
        <mxCell id="ik_8ahQZIbQPzL20nAGJ-154" value="" style="endArrow=none;html=1;rounded=0;exitX=0.5;exitY=0;exitDx=0;exitDy=0;strokeWidth=5;strokeColor=#000000;" edge="1" parent="1" source="ik_8ahQZIbQPzL20nAGJ-155">
          <mxGeometry width="50" height="50" relative="1" as="geometry">
            <mxPoint x="240" y="-770" as="sourcePoint" />
            <mxPoint x="230" y="-880" as="targetPoint" />
          </mxGeometry>
        </mxCell>
        <mxCell id="ik_8ahQZIbQPzL20nAGJ-155" value="&lt;strong style=&quot;font-size: 14px; line-height: var(--cib-type-body1-strong-line-height); font-variation-settings: normal; color: rgb(255, 255, 255); font-family: SegoeUIVariable, SegoeUI, &amp;quot;Segoe UI&amp;quot;, &amp;quot;Helvetica Neue&amp;quot;, Helvetica, &amp;quot;Microsoft YaHei&amp;quot;, &amp;quot;Meiryo UI&amp;quot;, Meiryo, &amp;quot;Arial Unicode MS&amp;quot;, sans-serif; text-align: right; background-color: rgb(43, 43, 43);&quot;&gt;Order Management&lt;/strong&gt;:" style="ellipse;whiteSpace=wrap;html=1;fillColor=#b1ddf0;strokeColor=#10739e;" vertex="1" parent="1">
          <mxGeometry x="170" y="-760" width="120" height="70" as="geometry" />
        </mxCell>
        <mxCell id="ik_8ahQZIbQPzL20nAGJ-156" value="&lt;strong style=&quot;font-size: 14px; line-height: var(--cib-type-body1-strong-line-height); font-variation-settings: normal; color: rgb(255, 255, 255); font-family: SegoeUIVariable, SegoeUI, &amp;quot;Segoe UI&amp;quot;, &amp;quot;Helvetica Neue&amp;quot;, Helvetica, &amp;quot;Microsoft YaHei&amp;quot;, &amp;quot;Meiryo UI&amp;quot;, Meiryo, &amp;quot;Arial Unicode MS&amp;quot;, sans-serif; text-align: right; background-color: rgb(43, 43, 43);&quot;&gt;Kitchen Equipment&lt;/strong&gt;" style="ellipse;whiteSpace=wrap;html=1;fillColor=#b1ddf0;strokeColor=#10739e;" vertex="1" parent="1">
          <mxGeometry x="20" y="-810" width="120" height="80" as="geometry" />
        </mxCell>
        <mxCell id="ik_8ahQZIbQPzL20nAGJ-157" value="" style="endArrow=none;html=1;rounded=0;exitX=0.5;exitY=0;exitDx=0;exitDy=0;strokeWidth=5;strokeColor=#050505;" edge="1" parent="1" source="ik_8ahQZIbQPzL20nAGJ-156">
          <mxGeometry width="50" height="50" relative="1" as="geometry">
            <mxPoint x="-60" y="-920" as="sourcePoint" />
            <mxPoint x="80" y="-870" as="targetPoint" />
          </mxGeometry>
        </mxCell>
        <mxCell id="ik_8ahQZIbQPzL20nAGJ-158" value="&lt;font style=&quot;font-size: 16px;&quot;&gt;&lt;strong style=&quot;line-height: var(--cib-type-body1-strong-line-height); font-variation-settings: normal; color: rgb(255, 255, 255); font-family: SegoeUIVariable, SegoeUI, &amp;quot;Segoe UI&amp;quot;, &amp;quot;Helvetica Neue&amp;quot;, Helvetica, &amp;quot;Microsoft YaHei&amp;quot;, &amp;quot;Meiryo UI&amp;quot;, Meiryo, &amp;quot;Arial Unicode MS&amp;quot;, sans-serif; text-align: right; background-color: rgb(43, 43, 43);&quot;&gt;Stock Management&lt;/strong&gt;:&lt;/font&gt;" style="ellipse;whiteSpace=wrap;html=1;fillColor=#b1ddf0;strokeColor=#10739e;" vertex="1" parent="1">
          <mxGeometry x="-140" y="-810" width="120" height="80" as="geometry" />
        </mxCell>
        <mxCell id="ik_8ahQZIbQPzL20nAGJ-159" value="" style="endArrow=none;html=1;rounded=0;entryX=0.5;entryY=0;entryDx=0;entryDy=0;strokeWidth=5;strokeColor=#000000;" edge="1" parent="1" target="ik_8ahQZIbQPzL20nAGJ-158">
          <mxGeometry width="50" height="50" relative="1" as="geometry">
            <mxPoint x="-80" y="-870" as="sourcePoint" />
            <mxPoint x="-10" y="-970" as="targetPoint" />
          </mxGeometry>
        </mxCell>
        <mxCell id="ik_8ahQZIbQPzL20nAGJ-160" value="&lt;font color=&quot;#000000&quot; style=&quot;font-size: 19px;&quot;&gt;Guarding&lt;/font&gt;" style="ellipse;whiteSpace=wrap;html=1;fillColor=#b1ddf0;strokeColor=#10739e;" vertex="1" parent="1">
          <mxGeometry x="-260" y="-1040" width="120" height="80" as="geometry" />
        </mxCell>
        <mxCell id="ik_8ahQZIbQPzL20nAGJ-161" value="" style="endArrow=classic;html=1;rounded=0;strokeWidth=5;strokeColor=#000000;" edge="1" parent="1" source="ik_8ahQZIbQPzL20nAGJ-114" target="ik_8ahQZIbQPzL20nAGJ-160">
          <mxGeometry width="50" height="50" relative="1" as="geometry">
            <mxPoint x="-80" y="-1190" as="sourcePoint" />
            <mxPoint x="-30" y="-1240" as="targetPoint" />
          </mxGeometry>
        </mxCell>
        <mxCell id="ik_8ahQZIbQPzL20nAGJ-162" value="" style="endArrow=classic;html=1;rounded=0;" edge="1" parent="1">
          <mxGeometry width="50" height="50" relative="1" as="geometry">
            <mxPoint x="10" y="-1440" as="sourcePoint" />
            <mxPoint x="60" y="-1490" as="targetPoint" />
          </mxGeometry>
        </mxCell>
        <mxCell id="ik_8ahQZIbQPzL20nAGJ-168" value="anonymous" style="shape=umlActor;verticalLabelPosition=bottom;verticalAlign=top;html=1;outlineConnect=0;" vertex="1" parent="1">
          <mxGeometry x="1140" y="-1630" width="110" height="160" as="geometry" />
        </mxCell>
        <mxCell id="ik_8ahQZIbQPzL20nAGJ-171" value="" style="endArrow=classic;html=1;rounded=0;strokeWidth=5;strokeColor=#000000;entryX=1;entryY=0;entryDx=0;entryDy=0;exitX=0.5;exitY=0.5;exitDx=0;exitDy=0;exitPerimeter=0;" edge="1" parent="1" source="ik_8ahQZIbQPzL20nAGJ-168" target="ik_8ahQZIbQPzL20nAGJ-34">
          <mxGeometry width="50" height="50" relative="1" as="geometry">
            <mxPoint x="1180" y="-1530" as="sourcePoint" />
            <mxPoint x="1230" y="-1580" as="targetPoint" />
          </mxGeometry>
        </mxCell>
        <mxCell id="ik_8ahQZIbQPzL20nAGJ-172" value="" style="endArrow=classic;html=1;rounded=0;entryX=1;entryY=0.5;entryDx=0;entryDy=0;strokeWidth=5;strokeColor=#000000;" edge="1" parent="1" source="ik_8ahQZIbQPzL20nAGJ-168" target="ik_8ahQZIbQPzL20nAGJ-31">
          <mxGeometry width="50" height="50" relative="1" as="geometry">
            <mxPoint x="1000" y="-1750" as="sourcePoint" />
            <mxPoint x="1050" y="-1800" as="targetPoint" />
          </mxGeometry>
        </mxCell>
        <mxCell id="ik_8ahQZIbQPzL20nAGJ-173" value="" style="endArrow=classic;html=1;rounded=0;entryX=0.983;entryY=0.786;entryDx=0;entryDy=0;entryPerimeter=0;strokeWidth=5;strokeColor=#000000;" edge="1" parent="1" source="ik_8ahQZIbQPzL20nAGJ-168" target="ik_8ahQZIbQPzL20nAGJ-30">
          <mxGeometry width="50" height="50" relative="1" as="geometry">
            <mxPoint x="730" y="-1860" as="sourcePoint" />
            <mxPoint x="780" y="-1910" as="targetPoint" />
          </mxGeometry>
        </mxCell>
      </root>
    </mxGraphModel>
  </diagram>
</mxfile>
